<?xml version="1.0" encoding="UTF-8" standalone="no"?>
<!-- Created with Inkscape (http://www.inkscape.org/) -->

<svg
   xmlns:dc="http://purl.org/dc/elements/1.1/"
   xmlns:cc="http://creativecommons.org/ns#"
   xmlns:rdf="http://www.w3.org/1999/02/22-rdf-syntax-ns#"
   xmlns:svg="http://www.w3.org/2000/svg"
   xmlns="http://www.w3.org/2000/svg"
   xmlns:sodipodi="http://sodipodi.sourceforge.net/DTD/sodipodi-0.dtd"
   xmlns:inkscape="http://www.inkscape.org/namespaces/inkscape"
   width="128"
   height="128"
   id="svg2"
   version="1.1"
   inkscape:version="0.48.4 r9939"
   sodipodi:docname="app_icon.svg">
  <defs
     id="defs4" />
  <sodipodi:namedview
     id="base"
     pagecolor="#ffffff"
     bordercolor="#666666"
     borderopacity="1.0"
     inkscape:pageopacity="0.0"
     inkscape:pageshadow="2"
     inkscape:zoom="2.8"
     inkscape:cx="-27.289935"
     inkscape:cy="21.918248"
     inkscape:document-units="px"
     inkscape:current-layer="layer1"
     showgrid="false"
     inkscape:window-width="994"
     inkscape:window-height="747"
     inkscape:window-x="17"
     inkscape:window-y="10"
     inkscape:window-maximized="0"
     showguides="true"
     inkscape:guide-bbox="true">
    <sodipodi:guide
       orientation="1,0"
       position="-13.928571,117.5"
       id="guide3917" />
  </sodipodi:namedview>
  <metadata
     id="metadata7">
    <rdf:RDF>
      <cc:Work
         rdf:about="">
        <dc:format>image/svg+xml</dc:format>
        <dc:type
           rdf:resource="http://purl.org/dc/dcmitype/StillImage" />
        <dc:title></dc:title>
      </cc:Work>
    </rdf:RDF>
  </metadata>
  <g
     inkscape:label="Layer 1"
     inkscape:groupmode="layer"
     id="layer1"
     transform="translate(0,-924.36218)">
    <path
       style="fill:none;stroke:#000000;stroke-width:2.13888597px;stroke-linecap:butt;stroke-linejoin:miter;stroke-opacity:1"
       d="m 46.416949,979.31324 c 0.569382,1.60321 2.256587,12.54696 3.064375,13.23829 0.755797,0.64663 5.998609,-2.78931 7.018506,-3.19374"
       id="path2989"
       inkscape:connector-curvature="0" />
    <path
       style="fill:#c0c0c0;fill-opacity:1;stroke:#000000;stroke-width:2.13888597px;stroke-linecap:butt;stroke-linejoin:miter;stroke-opacity:1"
       d="m 70.040407,972.63771 c -2.573357,2.71896 -0.371016,18.86409 -0.656055,19.25477 -0.807018,1.10596 -2.552805,-0.80503 -3.839504,-1.16279 -4.675944,-1.3003 -1.722798,0.33213 -7.395951,0.0397 -1.786011,-0.0916 -3.515622,-0.85311 -5.29987,-0.99754 -1.423419,-0.11602 -6.339045,1.65184 -7.301602,0.82811 -0.194108,-0.16429 0.100031,-0.62186 -0.09433,-0.78829 -0.274232,-0.23403 -2.766923,0.36773 -2.920642,0.33124 -2.823386,-0.66739 0.795682,-0.88936 -1.554672,-0.6228"
       id="path2991"
       inkscape:connector-curvature="0" />
    <path
       style="fill:#ff0000;fill-opacity:1;stroke:#000000;stroke-width:2.13888597px;stroke-linecap:butt;stroke-linejoin:miter;stroke-opacity:1"
       d="m 65.302348,951.59788 c -7.448119,-2.23814 -15.079622,-0.68745 -22.918063,0.20154 -1.333693,0.15126 -5.544206,-0.19142 -6.571443,0.7453 -0.413693,0.37832 -0.206327,1.2007 -0.541464,1.65959 -1.057724,1.44971 -4.243253,1.04795 -4.733685,3.73366 -0.141401,0.77412 0.52522,1.62313 0.283092,2.36559 -0.319872,0.97994 -1.474527,1.68298 -1.907435,2.61361 -1.18063,2.53864 -2.912301,5.50638 -3.437388,8.38162 -1.0842,5.937 15.248458,7.2893 17.925951,7.5569 10.447791,1.04458 20.524391,-0.72915 30.855479,-1.90084 2.433867,-0.27604 4.99392,0.0115 7.301602,-0.82811 4.630916,-1.68471 1.552307,-1.12388 3.36771,-2.77965 3.721743,-3.39394 -0.921101,1.03529 2.826294,-1.11963 3.755894,-2.16005 6.525567,-5.70575 9.278669,-9.0441 0.661535,-0.80204 5.472893,-5.62448 5.816563,-7.05327 0.36716,-1.52549 -0.62005,-3.148 -0.56608,-4.73036 0.0888,-2.60619 2.05156,-10.13042 -0.0494,-12.78115 -1.97827,-2.49644 -15.631122,-5.11126 -17.642916,-5.19171 -18.846315,-0.75608 6.095573,2.16744 -11.0468,0.45336 -4.03782,-0.4037 -8.012591,-1.70711 -12.059972,-1.82872 -2.337473,-0.0704 -13.96181,0.67691 -16.063525,1.82183 -1.084232,0.59066 -1.589415,2.03666 -2.637584,2.69654 -1.068926,0.67302 -2.487389,0.53065 -3.556456,1.20245 -3.037155,1.91199 -6.018583,5.41377 -9.467367,7.4673 -3.302025,1.96607 -7.361808,3.47664 -10.38627,5.97293 -0.430477,0.35538 -0.206326,1.2007 -0.54146,1.65961"
       id="path2987"
       inkscape:connector-curvature="0" />
    <path
       style="fill:#ffff00;fill-opacity:1;stroke:#000000;stroke-width:2.13888597px;stroke-linecap:butt;stroke-linejoin:miter;stroke-opacity:1"
       d="m 23.289907,996.32112 c 11.746166,-3.06382 24.316825,-3.55699 36.413659,-4.92894 7.544993,-0.85571 15.089982,-1.71142 22.634969,-2.56713 4.137581,-0.46926 8.36595,-0.41984 12.41273,-1.40778 1.962958,-0.47941 3.697418,-1.72753 5.652535,-2.2397 1.65941,-0.43677 3.4668,-0.0866 5.11112,-0.57967 1.26497,-0.37958 2.27225,-1.4022 3.46213,-1.99076 1.4618,-0.72302 4.29046,-0.4866 5.84128,-0.66249 0.48677,-0.0552 1.39741,-0.69131 1.46032,-0.16562 0.11131,0.93017 -5.696,5.96174 -6.35803,8.71279 -0.19352,0.80417 -0.29803,1.63247 -0.44707,2.44849 -0.60436,1.13408 -1.40954,2.16485 -1.8131,3.40198 -0.55672,1.70682 -1.85968,7.15221 -1.88266,9.00481 -0.0263,2.1124 1.13186,4.2433 0.75481,6.3075 -0.1333,0.7298 -0.96376,1.0809 -1.2716,1.7426 -0.69348,1.4911 0.83751,6.9984 1.03796,8.6735 0.11386,0.9514 1.26825,10.1929 1.22661,10.2499 -0.52325,0.7171 -9.33504,1.0587 -10.952405,1.2421 -21.17465,2.4016 -42.349301,4.8031 -63.523946,7.2046 -0.843903,0.096 -14.593837,1.6551 -14.603205,1.6562 -0.615383,-0.5269 -0.77801,-6.5013 -0.849228,-7.0964 -0.865949,-7.2361 -1.117482,-14.9708 -2.641975,-22.0771 -2.350281,-10.9555 -0.01388,6.0683 -1.579389,-7.0136 -0.408887,-3.4167 -0.817779,-6.83356 -1.226621,-10.24995 -0.125835,-1.05152 -0.251641,-2.10279 -0.377431,-3.15393 -0.09435,-0.78841 -1.013207,-2.28239 -0.283045,-2.3652 1.419173,-0.16095 2.622561,1.30075 3.933843,1.95115 2.622554,1.30067 5.140576,2.89836 7.867739,3.90265 4.29124,1.58031 10.412465,-0.3818 14.697552,-0.86779"
       id="path2993"
       inkscape:connector-curvature="0" />
    <path
       style="fill:#a7a7a7;fill-opacity:1;stroke:#676767;stroke-width:4.50000000000000000;stroke-linecap:round;stroke-linejoin:round;stroke-opacity:1;stroke-miterlimit:4;stroke-dasharray:none"
       d="m 52.142858,1035.9336 c -0.683983,0.4006 0.512621,2.3445 0,2.8572 -0.188231,0.1882 -0.566626,0.1356 -0.714286,0.3571 -0.104364,0.1565 0,1.153 0,1.4286 0,0.4846 -0.28546,2.2145 0,2.5 0.188231,0.1882 0.526055,0.1689 0.714286,0.3571 0.149658,0.1497 0.248917,0.855 0.357143,1.0714 0.518735,1.0375 2.445893,2.6516 3.571428,3.2143 0.984662,0.4924 3.517542,0 4.642857,0 0.522188,0 2.549543,0.3076 2.857143,0 0.168359,-0.1683 -0.106479,-0.5013 0,-0.7143 0.152519,-0.305 0.713737,-0.1783 1.071429,-0.3571 0.106479,-0.053 -0.05324,-0.2507 0,-0.3571 0.296531,-0.5931 1.408031,-0.6733 1.785714,-1.4286 0.106479,-0.213 -0.106479,-0.5013 0,-0.7143 0.0759,-0.1518 0.638384,-0.5625 0.714286,-0.7143 0.238095,-0.4762 -0.238096,-1.3095 0,-1.7857 0.704353,-1.4087 0.340667,-2.4506 0.714285,-3.5714 0.05324,-0.1598 0.281851,-0.2066 0.357143,-0.3572 0.148677,-0.2973 -0.22654,-1.202 0,-1.4285 0.08418,-0.084 0.272964,0.084 0.357143,0 0.476191,-0.4762 -0.47619,-2.381 0,-2.8572 0.08418,-0.084 0.272964,0.084 0.357143,0 0.03897,-0.039 0.179881,-1.074 0.357143,-1.4286 0.333333,-0.6666 -0.333333,-1.8333 0,-2.5 0.168359,-0.3367 0.09094,-0.8052 0.357143,-1.0714 0.08418,-0.084 0.272963,0.084 0.357143,0 0.113554,-0.1135 -0.113555,-0.6007 0,-0.7143 0.08418,-0.084 0.272963,0.084 0.357142,0 0.238096,-0.2381 -0.238095,-1.1905 0,-1.4285 0.08418,-0.084 0.250664,0.053 0.357143,0 0.750404,-0.3752 -0.0069,-0.7074 0.357143,-1.0715 0.08418,-0.084 0.272964,0.084 0.357143,0 0.168359,-0.1683 -0.106479,-0.5013 0,-0.7143 0.485388,-0.9707 1.657469,-1.5292 2.142857,-2.5 0.161984,-0.3239 0.481178,-1.1954 0.714286,-1.4285 0.178571,-0.1786 0.535714,-0.1786 0.714286,-0.3572 0.178571,-0.1785 -0.178572,-0.8928 0,-1.0714 0.47619,-0.4762 0.3427,0.7576 0.714285,-0.3571 0.07529,-0.2259 -0.106479,-0.5014 0,-0.7143 0.02126,-0.043 1.342747,-1.1711 1.428572,-1.4286 0.07529,-0.2259 -0.10648,-0.5013 0,-0.7143 0.05324,-0.1065 0.250663,0.053 0.357143,0 0.201189,-0.1006 0.954497,-1.1947 1.071428,-1.4286 0.886313,-1.7726 1.956797,-3.1993 2.85714,-5 0.74317,-1.4863 -0.0246,0.3818 0.71429,-0.3571 0.14966,-0.1497 0.24892,-0.855 0.35714,-1.0714 0.41483,-0.8297 1.37479,-1.321 1.78572,-2.1429 0.41155,-0.8231 0.3803,-1.4749 0.71428,-2.1428 0.11905,-0.2381 0.59524,-0.1191 0.71429,-0.3572 0.10648,-0.213 -0.10648,-0.5013 0,-0.7143 0.0532,-0.1065 0.27296,0.084 0.35714,0 1.39383,-1.3938 -0.0827,-0.1918 0.35714,-1.0714 0.0573,-0.1147 0.65696,-0.5996 0.71429,-0.7143 0.18312,-0.3662 0.17402,-1.06233 0.35714,-1.42856 0.48547,-0.97095 1.00225,-1.29021 1.42857,-2.14286 0.10648,-0.21296 -0.10648,-0.50133 0,-0.71429 0.1736,-0.34718 0.5407,-0.3671 0.71429,-0.71428 0.24905,-0.49811 0.10809,-1.28761 0.35714,-1.78572 0.52955,-1.0591 0.84418,-1.68834 1.42857,-2.85714 0.10648,-0.21296 -0.10648,-0.50133 0,-0.71428 0.32876,-0.65751 0.74268,-0.0568 1.07143,-0.71429 0.10648,-0.21296 -0.16836,-0.54593 0,-0.71429 0.0321,-0.032 1.06227,-0.0183 1.07143,0 0.10648,0.21296 -0.0753,0.48841 0,0.71429 0.37159,1.11476 0.2381,-0.11905 0.71429,0.35714 0.23383,0.23384 0.2221,0.82534 0.71428,1.07143 0.21564,0.10782 0.90634,-0.16509 1.07143,0 0.0842,0.0842 -0.0842,0.27296 0,0.35714 0.16836,0.16836 0.54593,-0.16835 0.71429,0 0.0842,0.0842 -0.0842,0.27297 0,0.35715 0.69965,0.69965 2.94053,0.35714 3.928571,0.35714 0.33868,0 1.92718,0.21567 2.14285,0 0.18824,-0.18823 0.16892,-0.52606 0.35715,-0.71429 0.16509,-0.16509 0.85579,0.10782 1.07143,0 0.48335,-0.24167 0.23093,-0.47261 0.71428,-0.71428 0.62131,-0.31066 2.04144,-0.61287 2.5,-1.07143 0.16836,-0.16836 -0.16836,-0.54593 0,-0.71429 0.31837,-0.31836 1.04928,-0.16749 1.42857,-0.35714 1.48635,-0.74317 -0.3818,0.0247 0.35715,-0.71428 0.14965,-0.14966 0.85497,-0.24892 1.07142,-0.35715 0.70344,-0.35171 1.02768,-1.38482 1.42858,-1.78571 0.35634,-0.35634 1.16539,-0.54507 1.42857,-1.07143 0.16198,-0.32397 0.48118,-1.19546 0.71428,-1.42857 0.0842,-0.0842 0.27297,0.0842 0.35715,0 0.16835,-0.16836 -0.10648,-0.50133 0,-0.71429 0.74317,-1.48634 -0.0247,0.3818 0.71428,-0.35714 0.1651,-0.16509 -0.10782,-0.8558 0,-1.07143 0.74317,-1.48634 -0.0247,0.3818 0.71429,-0.35714 0.16836,-0.16836 -0.16836,-0.54593 0,-0.71429 0.0842,-0.0842 0.27296,0.0842 0.35714,0 0.44147,-0.44146 0.0839,-2.31066 0.35714,-2.85714 0.0532,-0.10648 0.27297,0.0842 0.35715,0 0.16835,-0.16836 -0.16836,-0.54593 0,-0.71429 0.45162,-0.45162 1.36833,-1.01119 1.78571,-1.42857 0.11905,-0.11905 0.2381,-0.95238 0.35714,-1.07143 0.0842,-0.0842 0.27297,0.0842 0.35715,0 0.16835,-0.16835 -0.16836,-0.54592 0,-0.71428 0.0842,-0.0842 0.27296,0.0842 0.35714,0 0.17857,-0.17857 -0.17857,-0.89286 0,-1.07143 0.0842,-0.0842 0.27296,0.0842 0.35714,0 0.38288,-0.38288 0,-3.34863 0,-3.92857 0,-0.14706 0.0945,-0.97689 0,-1.07143 -0.18823,-0.18823 -0.52605,-0.16891 -0.71428,-0.35714 -0.17858,-0.17857 0.17857,-0.89286 0,-1.07143 -0.0842,-0.0842 -0.27297,0.0842 -0.35715,0 -0.29762,-0.29762 0.29762,-1.4881 0,-1.78572 -0.0842,-0.0842 -0.27296,0.0842 -0.35714,0 -0.16509,-0.16509 0.10782,-0.85579 0,-1.07142 -0.34818,-0.69637 -0.71429,-1.67018 -0.71429,-2.5 0,-0.21795 0.13916,-1.28942 0,-1.42858 -0.0842,-0.0842 -0.27296,0.0842 -0.35714,0 -0.29762,-0.29762 0.29762,-1.48809 0,-1.78571 -0.0842,-0.0842 -0.27296,0.0842 -0.35714,0 -0.2662,-0.2662 -0.18879,-0.73471 -0.35714,-1.07143 -0.086,-0.17195 -0.46768,-2.03232 -0.71429,-1.78571 -0.55996,0.55996 -0.47838,2.26409 -0.71429,2.5 -0.0842,0.0842 -0.27296,-0.0842 -0.35714,0 -0.16836,0.16836 0.10648,0.50132 0,0.71428 -0.54456,1.08913 -0.28313,-0.65319 -0.71428,1.07143 -0.13384,0.53536 0.17434,1.26268 0,1.78572 -0.12332,0.36993 -0.53713,0.71711 -0.71429,1.07142 -0.18312,0.36624 -0.17402,1.06234 -0.35714,1.42858 -0.63364,1.26728 -1.67249,2.51747 -2.14286,3.92857 -0.0753,0.22587 0.10648,0.50132 0,0.71428 -0.0532,0.10648 -0.27296,-0.0842 -0.35714,0 -0.1642,0.1642 -0.57386,1.14771 -0.71429,1.42857 -0.14286,0.28572 0.14286,0.78572 0,1.07143 -0.26296,0.52592 -0.47385,0.47385 -0.71428,0.71429 -0.21989,0.21989 -0.22296,1.51734 -0.35715,1.78571 -0.0532,0.10648 -0.27296,-0.0842 -0.35714,0 -0.0626,0.0626 -0.8899,1.79163 -1.07143,1.42857 -0.16883,-0.33767 -0.0899,-1.16134 -0.35714,-1.42857 -0.17857,-0.17857 -0.53572,-0.17857 -0.71429,-0.35714 -0.16836,-0.16836 0.16836,-0.54593 0,-0.71429 -0.75096,-0.75096 -2.19479,-1.83764 -2.85714,-2.5 -0.0842,-0.0842 0.0842,-0.27296 0,-0.35714 -0.17857,-0.17857 -0.89286,0.17857 -1.07143,0 -0.0842,-0.0842 0.0842,-0.27296 0,-0.35714 -0.16836,-0.16836 -0.54593,0.16836 -0.71428,0 -0.0842,-0.0842 0.0842,-0.27297 0,-0.35714 -0.16836,-0.16836 -0.50133,0.10647 -0.71429,0 -0.97229,-0.48615 -1.896781,-0.94839 -2.857141,-1.42858 -0.4509,-0.22545 -1.80001,0.34286 -2.14286,0 -0.0842,-0.0842 0.0842,-0.27296 0,-0.35714 -0.21722,-0.21722 -1.65812,0.25518 -1.78571,0 -0.15972,-0.31944 0,-0.71428 0,-1.07143 0,-0.23809 -0.21296,-0.6078 0,-0.71428 0.21295,-0.10648 0.54592,0.16836 0.71428,0 0.35714,-0.35715 0,-1.42857 0.35714,-1.78572 0.18814,-0.18813 0.99057,-0.55257 1.07143,-0.71428 0.10648,-0.21296 -0.0753,-0.48841 0,-0.71429 0.23376,-0.70126 1.47003,-1.82717 1.78572,-2.14286 0.16836,-0.16835 -0.16836,-0.54592 0,-0.71428 0.0842,-0.0842 0.3039,0.10648 0.35714,0 0.10648,-0.21296 -0.10648,-0.50133 0,-0.71429 0.0532,-0.10648 0.27296,0.0842 0.35714,0 0.11905,-0.11905 0.2381,-0.95238 0.35715,-1.07143 0.0842,-0.0842 0.27296,0.0842 0.35714,0 0.413271,-0.41326 0.658161,-2.08673 1.071431,-2.5 0.0842,-0.0842 0.27296,0.0842 0.35714,0 0.16836,-0.16835 -0.16836,-0.54592 0,-0.71428 0.0842,-0.0842 0.27296,0.0842 0.35714,0 0.16836,-0.16836 -0.10648,-0.50133 0,-0.71429 0.30304,-0.60607 0.50044,-1.14417 0.71429,-1.78571 0.0896,-0.26883 0.71708,-1.42718 0.71428,-1.42857 -0.13612,-0.0681 -2.36172,-0.13828 -2.5,0 -0.18823,0.18823 -0.16891,0.52605 -0.357141,0.71428 -0.16836,0.16836 -0.50133,-0.10648 -0.71428,0 -0.41603,0.20802 -0.65541,0.50628 -1.07143,0.71429 -1.06669,0.53334 -5.2794,-0.21745 -6.42857,0.35714 -0.51564,0.25782 -0.91294,0.45647 -1.42858,0.71429 -0.21563,0.10781 -0.90633,-0.1651 -1.07142,0 -0.24044,0.24043 -0.18838,0.45133 -0.71429,0.71428 -0.21296,0.10648 -0.54593,-0.16836 -0.71429,0 -0.0842,0.0842 0.0842,0.27297 0,0.35715 -0.39919,0.39919 -1.323,0.48293 -1.78571,0.71428 -0.10648,0.0532 0.0842,0.27296 0,0.35714 -0.26648,0.26649 -2.77896,1.21091 -3.21429,1.42858 -1.48634,0.74317 0.3818,-0.0247 -0.35714,0.71428 -0.16836,0.16836 -0.50133,-0.10648 -0.71428,0 -0.727405,0.3637 -0.33551,1.04979 -0.71429,1.42857 -0.738941,0.73894 0.0289,-1.1292 -0.714286,0.35715 -0.392375,0.78475 -0.502792,8.00279 -0.714285,8.21428 -0.617405,0.61741 -0.537968,-0.36165 -0.714286,-0.71428 -0.115518,-0.23104 -1.949312,-0.1636 -2.142857,-0.35715 -1.047943,-1.04794 -1.770132,-2.5 -3.571429,-2.5 -0.119047,0 -0.303903,-0.10648 -0.357143,0 -0.106479,0.21296 0.07529,0.48841 0,0.71429 -0.05324,0.15972 -0.238095,0.23809 -0.357142,0.35714 -0.119048,0.2381 -0.272964,0.46175 -0.357143,0.71429 -0.07529,0.22587 0.168358,0.54592 0,0.71428 -0.08418,0.0842 -0.303903,-0.10648 -0.357143,0 -0.194615,0.38923 -0.441866,2.66945 -0.714286,3.21429 -0.119047,0.23809 -0.595238,0.11905 -0.714286,0.35714 -0.159719,0.31944 0.252539,0.81889 0,1.07143 -0.08418,0.0842 -0.272963,-0.0842 -0.357142,0 -0.03205,0.0321 -0.01832,1.06227 0,1.07143 0.319438,0.15972 0.81889,-0.25254 1.071428,0 0.08418,0.0842 -0.08418,0.27296 0,0.35714 0.451377,0.45138 2.92212,0.21106 3.928572,0.71429 0.212958,0.10648 0.545927,-0.16836 0.714285,0 0.289127,0.28912 0,2.4029 0,2.85714 0,0.4416 0.234867,1.79056 0,2.14286 -0.238095,0.23809 -0.47619,0.47619 -0.714285,0.71428 -0.119048,0 -0.272964,-0.0842 -0.357143,0 -0.119048,0.11905 -0.238096,0.95238 -0.357143,1.07143 -0.08418,0.0842 -0.303903,-0.10648 -0.357143,0 -0.299573,0.59915 -0.06185,1.55228 -0.357143,2.14286 -0.743171,1.48634 0.02466,-0.3818 -0.714286,0.35714 -0.168358,0.16836 0.10648,0.50133 0,0.71429 -0.150584,0.30117 -0.563701,0.41311 -0.714285,0.71428 -0.09524,0.19049 0.09524,0.5238 0,0.71429 -0.208013,0.41602 -0.506273,0.6554 -0.714286,1.07143 -0.142857,0.28571 0.142857,0.78571 0,1.07143 -0.05324,0.10647 -0.238095,0 -0.357143,0 -0.119047,0.35714 -0.283313,0.70227 -0.357143,1.07142 -0.265715,1.32858 -0.285119,2.64108 -0.714285,3.92858 -0.05324,0.15971 -0.238096,0.23809 -0.357143,0.35714 -0.119048,0.23809 -0.272964,0.46175 -0.357143,0.71428 -1.239499,3.7185 -2.747994,7.17256 -3.928572,10.71431 -0.135735,0.4072 -0.57855,0.6642 -0.714285,1.0714 -0.507991,1.524 -1.057134,2.8286 -1.785715,4.2857 -0.106479,0.213 0.168359,0.5459 0,0.7143 -0.08418,0.084 -0.272963,-0.084 -0.357142,0 -0.04439,0.044 -0.672841,2.3342 -0.714286,2.5 -0.193595,0.7744 -0.877834,1.0113 -1.071429,1.7857 -0.164491,0.658 -0.144048,1.1465 -0.357143,1.7857 -0.355198,1.0656 -1.284869,2.2126 -1.785714,3.2143 -0.189647,0.3793 -0.03878,1.1102 -0.357143,1.4286 -0.08418,0.084 -0.303903,-0.1065 -0.357143,0 -0.26292,0.5258 -0.170301,1.5823 -0.357142,2.1429 -0.312769,0.9383 -0.737971,-0.2625 -1.071429,1.0714 -0.710465,2.8418 -1.901765,6.3035 -3.214286,8.9286 -0.148676,0.2973 0.22654,1.202 0,1.4285 -0.08418,0.084 -0.303903,-0.1065 -0.357143,0 -0.762832,1.5257 -0.154296,4.44 -1.428571,5.7143"
       id="path4274"
       inkscape:connector-curvature="0" />
  </g>
</svg>
