<?xml version="1.0" encoding="UTF-8" standalone="no"?>
<!-- Created with Inkscape (http://www.inkscape.org/) -->

<svg
   xmlns:dc="http://purl.org/dc/elements/1.1/"
   xmlns:cc="http://creativecommons.org/ns#"
   xmlns:rdf="http://www.w3.org/1999/02/22-rdf-syntax-ns#"
   xmlns:svg="http://www.w3.org/2000/svg"
   xmlns="http://www.w3.org/2000/svg"
   xmlns:sodipodi="http://sodipodi.sourceforge.net/DTD/sodipodi-0.dtd"
   xmlns:inkscape="http://www.inkscape.org/namespaces/inkscape"
   width="128"
   height="128"
   id="svg2"
   version="1.1"
   inkscape:version="0.48.4 r9939"
   sodipodi:docname="choose.svg">
  <defs
     id="defs4" />
  <sodipodi:namedview
     id="base"
     pagecolor="#ffffff"
     bordercolor="#666666"
     borderopacity="1.0"
     inkscape:pageopacity="0.0"
     inkscape:pageshadow="2"
     inkscape:zoom="1.979899"
     inkscape:cx="28.762437"
     inkscape:cy="71.316844"
     inkscape:document-units="px"
     inkscape:current-layer="layer1"
     showgrid="false"
     inkscape:window-width="1271"
     inkscape:window-height="865"
     inkscape:window-x="227"
     inkscape:window-y="49"
     inkscape:window-maximized="0" />
  <metadata
     id="metadata7">
    <rdf:RDF>
      <cc:Work
         rdf:about="">
        <dc:format>image/svg+xml</dc:format>
        <dc:type
           rdf:resource="http://purl.org/dc/dcmitype/StillImage" />
        <dc:title></dc:title>
      </cc:Work>
    </rdf:RDF>
  </metadata>
  <g
     inkscape:label="Layer 1"
     inkscape:groupmode="layer"
     id="layer1"
     transform="translate(0,-924.36218)">
    <g
       id="g4027"
       transform="matrix(1.023148,0,0,0.89267682,-0.71070513,107.95372)">
      <path
         inkscape:connector-curvature="0"
         id="path3965"
         d="m 42.061818,946.48195 c 6.800135,0.38066 -3.000617,12.01231 -2.24923,3.08707 -0.154268,-1.37694 0.744885,-2.95652 2.24923,-3.08707 z"
         style="fill:none;stroke:#000000;stroke-width:3.56999993;stroke-linecap:butt;stroke-linejoin:miter;stroke-miterlimit:4;stroke-opacity:1;stroke-dasharray:none" />
      <path
         inkscape:connector-curvature="0"
         id="path3967"
         d="m 51.482096,949.03276 c 6.392836,-6.73491 13.596671,-0.45115 18.714537,3.40228 6.716878,-2.38528 13.452821,-4.42205 20.345476,-0.97929 6.774135,1.20675 13.770611,1.29446 19.826161,-2.46358 1.87385,-0.64725 3.96884,-0.69668 5.82704,0.0406"
         style="fill:none;stroke:#000000;stroke-width:3.56999993;stroke-linecap:butt;stroke-linejoin:miter;stroke-miterlimit:4;stroke-opacity:1;stroke-dasharray:none" />
      <path
         inkscape:connector-curvature="0"
         id="path3969"
         d="m 42.061818,972.62778 c -9.007889,-0.27772 2.550224,12.96959 1.788191,3.13659 0.227868,-1.16641 0.554731,-4.79432 -1.788191,-3.13659 z"
         style="fill:none;stroke:#000000;stroke-width:3.56999993;stroke-linecap:butt;stroke-linejoin:miter;stroke-miterlimit:4;stroke-opacity:1;stroke-dasharray:none" />
      <path
         inkscape:connector-curvature="0"
         id="path3971"
         d="m 52.710828,975.81628 c 5.013771,-8.75066 14.207649,4.86109 20.60746,-2.66705 7.447428,-0.71827 14.764149,0.2932 22.717416,0.0387 3.533974,-2.33552 8.689856,3.22154 12.015196,-2.00121 1.80211,-0.0998 3.53636,0.4473 5.27735,0.80322"
         style="fill:none;stroke:#000000;stroke-width:3.56999993;stroke-linecap:butt;stroke-linejoin:miter;stroke-miterlimit:4;stroke-opacity:1;stroke-dasharray:none" />
      <path
         inkscape:connector-curvature="0"
         id="path3973"
         d="m 41.652241,998.77354 c -6.921922,-5.33462 -0.782677,11.44356 1.541153,3.27146 -0.11741,-1.2284 -0.644141,-2.42282 -1.541153,-3.27146 z"
         style="fill:none;stroke:#000000;stroke-width:3.56999993;stroke-linecap:butt;stroke-linejoin:miter;stroke-miterlimit:4;stroke-opacity:1;stroke-dasharray:none" />
      <path
         inkscape:connector-curvature="0"
         id="path3975"
         d="m 52.710828,998.77354 c 5.756478,-1.81131 9.758471,3.25366 16.275414,-0.38882 8.115163,-3.43609 14.882745,1.58905 22.417863,3.43418 6.308312,-2.05296 15.039135,-1.442 19.963245,-4.50353 -0.0587,0.82777 0.91247,0.59393 1.14176,0.18279"
         style="fill:none;stroke:#000000;stroke-width:3.56999993;stroke-linecap:butt;stroke-linejoin:miter;stroke-miterlimit:4;stroke-opacity:1;stroke-dasharray:none" />
      <path
         inkscape:connector-curvature="0"
         id="path3977"
         d="m 40.423509,1028.108 c -6.426751,-8.1443 -5.236161,8.412 0.875308,3.2374 -0.56735,-4.3981 0.185545,-1.2214 1.430486,-3.4935 -0.03488,-1.7223 -2.090305,-0.9888 -2.305794,0.2561 z"
         style="fill:none;stroke:#000000;stroke-width:3.56999993;stroke-linecap:butt;stroke-linejoin:miter;stroke-miterlimit:4;stroke-opacity:1;stroke-dasharray:none" />
      <path
         inkscape:connector-curvature="0"
         id="path3979"
         d="m 53.529983,1029.3832 c -1.233118,-7.4627 8.425941,-8.529 9.974184,-1.6751 5.864558,3.3739 12.529554,-7.0736 17.175808,1.8005 6.889465,7.0661 10.833842,-10.8962 19.506705,-4.9938 3.99934,3.7942 10.74527,-5.1097 12.06435,3.1367 0.81745,0.7608 2.12245,1.0215 3.12512,0.4563"
         style="fill:none;stroke:#000000;stroke-width:3.56999993;stroke-linecap:butt;stroke-linejoin:miter;stroke-miterlimit:4;stroke-opacity:1;stroke-dasharray:none" />
      <path
         inkscape:connector-curvature="0"
         id="path3981"
         d="m 12.005807,965.13808 c 0,-0.16558 0.162319,-0.49672 0,-0.49672 -0.162318,0 -0.114776,0.37964 0,0.49672 0.165552,0.16887 0.808359,-0.16887 0.97391,0 0.114777,0.11707 -0.114776,0.37964 0,0.49671 0.319238,0.32564 1.703855,0.24787 1.94782,0.49672 0.114777,0.11708 -0.114776,0.37964 0,0.49672 0.162319,0.16557 1.298547,0.33114 1.460866,0.49672 0.114775,0.11707 -0.114777,0.37964 0,0.49671 0.455498,0.46464 2.304405,0.67859 2.921729,0.99344 2.495974,1.27301 3.894697,2.64884 6.330416,3.47702 1.240927,0.42194 2.707446,0.81355 3.89564,1.49016 -0.162319,0.66229 -0.187655,1.37627 -0.486955,1.98687 -0.09379,0.19134 -2.173088,0.7265 -2.434776,0.99343 -0.677123,0.6907 -1.080817,1.59921 -1.94782,2.48359 -0.114776,0.11708 -0.351897,-0.0918 -0.486954,0 -0.936452,0.63682 -1.498324,1.84677 -2.434775,2.48359 -1.748836,1.18926 -3.224971,2.6317 -4.869551,3.97374 -0.819848,0.66903 -2.439784,1.98943 -3.408685,2.48359 -0.409231,0.20872 -1.664814,0.20804 -1.94782,0.49672 -0.737742,0.75253 0.08888,0.99343 -0.486955,0.99343 -0.694903,-2.71586 0.05345,-5.68802 -0.486955,-8.4442 -0.67678,-3.45174 -0.9739099,-7.31397 -0.9739099,-10.92779 0,-1.32458 0,-2.64916 0,-3.97374 0,-0.33114 0,-1.32458 0,-0.99343 0,0.33114 0,1.32458 0,0.99343 0,-0.49672 -0.4521264,-1.30568 0,-1.49015 0.7684669,-0.31355 2.5970939,-0.33115 2.4347749,0.49672 -0.162318,0.82786 -1.623183,-0.33115 0,0 z"
         style="fill:#000000;fill-opacity:1;stroke:#000000;stroke-width:0.97373837px;stroke-linecap:butt;stroke-linejoin:miter;stroke-opacity:1" />
    </g>
  </g>
</svg>
