<?xml version="1.0" encoding="UTF-8" standalone="no"?>
<!-- Created with Inkscape (http://www.inkscape.org/) -->

<svg
   xmlns:dc="http://purl.org/dc/elements/1.1/"
   xmlns:cc="http://creativecommons.org/ns#"
   xmlns:rdf="http://www.w3.org/1999/02/22-rdf-syntax-ns#"
   xmlns:svg="http://www.w3.org/2000/svg"
   xmlns="http://www.w3.org/2000/svg"
   xmlns:sodipodi="http://sodipodi.sourceforge.net/DTD/sodipodi-0.dtd"
   xmlns:inkscape="http://www.inkscape.org/namespaces/inkscape"
   width="128"
   height="128"
   id="svg2"
   version="1.1"
   inkscape:version="0.48.4 r9939"
   sodipodi:docname="New document 1">
  <defs
     id="defs4" />
  <sodipodi:namedview
     id="base"
     pagecolor="#ffffff"
     bordercolor="#666666"
     borderopacity="1.0"
     inkscape:pageopacity="0.0"
     inkscape:pageshadow="2"
     inkscape:zoom="1.979899"
     inkscape:cx="-6.8660131"
     inkscape:cy="105.66203"
     inkscape:document-units="px"
     inkscape:current-layer="layer1"
     showgrid="false"
     inkscape:window-width="889"
     inkscape:window-height="689"
     inkscape:window-x="780"
     inkscape:window-y="0"
     inkscape:window-maximized="0" />
  <metadata
     id="metadata7">
    <rdf:RDF>
      <cc:Work
         rdf:about="">
        <dc:format>image/svg+xml</dc:format>
        <dc:type
           rdf:resource="http://purl.org/dc/dcmitype/StillImage" />
        <dc:title></dc:title>
      </cc:Work>
    </rdf:RDF>
  </metadata>
  <g
     inkscape:label="Layer 1"
     inkscape:groupmode="layer"
     id="layer1"
     transform="translate(0,-924.36218)">
    <path
       style="fill:#00e100;fill-opacity:1;stroke:#000000;stroke-width:5;stroke-linecap:round;stroke-linejoin:round;stroke-miterlimit:4;stroke-opacity:1;stroke-dasharray:none"
       d="m 13.63706,974.58043 c 5.506234,-4.96727 13.393997,-3.39717 20.137668,-4.43927 9.239453,-0.76612 18.54208,-0.0482 27.581267,1.93091 5.386948,-0.61225 14.14776,3.55915 17.345147,-1.78249 -0.977962,-5.81559 -2.940229,-11.49101 -3.572121,-17.43114 -0.670877,-3.15379 -2.101194,-13.18594 3.626888,-8.8237 6.513179,7.03815 12.398248,14.69882 19.508898,21.19151 5.135683,7.16661 11.467933,13.39495 17.312023,19.93671 5.13818,6.02863 -3.83763,9.70869 -5.51004,15.02704 -5.00623,8.0046 -12.390728,14.1577 -17.576654,22.0422 -4.541501,5.0276 -9.337429,9.9071 -14.201924,14.5553 -2.531378,-2.8192 -0.410711,-8.4509 -1.513324,-12.3432 -0.32507,-5.2542 -0.18154,-10.5837 1.012299,-15.7298 -2.425898,-3.9632 -8.226205,1.1891 -12.087361,-0.691 -6.713574,-0.4828 -13.474401,-1.1344 -20.156389,0.042 -7.853564,0.4958 -15.763852,1.0919 -23.403434,2.9817 -3.790078,-0.239 -9.59933,3.0568 -11.914076,1.7064 2.595322,-13.57173 3.363932,-27.40993 3.411135,-41.20312"
       id="path2989"
       inkscape:connector-curvature="0" />
  </g>
</svg>
