<?xml version="1.0" encoding="UTF-8" standalone="no"?>
<!-- Created with Inkscape (http://www.inkscape.org/) -->

<svg
   xmlns:dc="http://purl.org/dc/elements/1.1/"
   xmlns:cc="http://creativecommons.org/ns#"
   xmlns:rdf="http://www.w3.org/1999/02/22-rdf-syntax-ns#"
   xmlns:svg="http://www.w3.org/2000/svg"
   xmlns="http://www.w3.org/2000/svg"
   version="1.1"
   width="128"
   height="128"
   id="svg2">
  <defs
     id="defs4" />
  <metadata
     id="metadata7">
    <rdf:RDF>
      <cc:Work
         rdf:about="">
        <dc:format>image/svg+xml</dc:format>
        <dc:type
           rdf:resource="http://purl.org/dc/dcmitype/StillImage" />
        <dc:title></dc:title>
      </cc:Work>
    </rdf:RDF>
  </metadata>
  <g
     transform="translate(0,-924.36218)"
     id="layer1">
    <g
       transform="matrix(0.98277903,0,0,0.97858398,-7.3325142,29.734978)"
       id="g3839">
      <path
         d="m 23.928572,920.57647 c 0.351364,0.77631 -0.263523,1.70943 0,2.5 0.336717,1.01015 1.064685,1.85645 1.428571,2.85714 1.238929,3.40705 1.840042,6.899 2.857143,10.35714 0.287004,0.97581 0.871951,1.85975 1.071429,2.85714 0.495942,2.47972 0,5.6862 0,8.21429 0,7.02381 0,14.04762 0,21.07143 0,4.28571 0,8.57143 0,12.85714 0,4.52381 0,9.04762 0,13.57143 0,0.29412 -0.189076,1.95378 0,2.14286 0.168359,0.16836 0.501327,0.10648 0.714285,0 1.246134,-0.62307 1.988206,-2.54784 2.5,-3.57143 0.119048,-0.2381 0.595239,-0.11905 0.714286,-0.35714 0.212959,-0.42592 -0.150584,-0.97682 0,-1.42858 0.478168,-1.4345 1.031777,-2.69853 1.428572,-4.28571 0.220868,-0.88348 -0.286889,-1.99648 0,-2.85714 0.283125,-0.84938 0.498197,-1.63565 0.714285,-2.5 0.115493,-0.46198 -0.150584,-0.97682 0,-1.42857 0.791152,-2.37346 1.785715,-5.26863 1.785715,-7.85715 0,-2.38095 0,-4.7619 0,-7.14285 0,-0.95239 0,-1.90477 0,-2.85715 0,-0.23809 -0.238096,-0.71428 0,-0.71428 0.04685,0 -0.06486,3.24712 0,3.57143 0.196833,0.98416 0.957451,10.24316 1.071428,10.35714 0.168359,0.16836 0.476191,0 0.714286,0 0.308747,0 1.893333,0.16635 2.142857,0 0.221491,-0.14766 0.168912,-0.52606 0.357143,-0.71429 0.154674,-0.15467 1.198072,-0.56062 1.428571,-0.71428 0.649774,-0.43319 0.0087,-0.72301 0.357143,-1.07143 0.188231,-0.18823 0.526055,-0.16891 0.714286,-0.35714 0.223519,-0.22352 0.868833,-1.73767 1.071428,-2.14286 0.601513,-1.20303 1.454994,-2.24855 1.785715,-3.57143 0.08662,-0.34648 -0.159719,-0.75199 0,-1.07143 0.119047,-0.23809 0.595238,-0.83333 0.357143,-0.71428 -1.316131,0.65806 -1.563465,4.84134 -1.071429,6.07142 0.734161,1.83541 2.078073,3.53932 2.857143,5.35715 0.935989,2.18397 1.298437,3.49045 3.571429,1.78571 0.212958,-0.15972 0.582214,-0.12602 0.714285,-0.35714 0.373555,-0.65372 0.434657,-1.44379 0.714286,-2.14286 1.180298,-2.95074 3.214286,-5.68544 3.214286,-8.92857 0,-1.30952 0,-2.61905 0,-3.92857 0,-0.35714 0,-1.42857 0,-1.07143 0,4.1114 0.319438,-1.15574 -0.714286,1.42857 -0.256245,0.64061 -0.19173,6.37594 0,7.14286 0.25825,1.033 0.7634,2.02568 1.428571,2.85714 0.166293,0.20787 0.554567,0.14419 0.714286,0.35714 0.225877,0.30117 0.131266,0.77026 0.357143,1.07143 0.264039,0.35206 2.865832,1.06274 3.214286,0.71429 1.096214,-1.09622 -0.208665,-0.29696 0.357143,-1.42857 0.455661,-0.91133 0.827129,-0.82713 1.428571,-1.42857 0.252538,-0.25254 -0.198107,-0.77427 0,-1.07143 0.14766,-0.22149 0.526055,-0.16891 0.714286,-0.35715 0.96648,-0.96648 0.357143,-2.59007 0.357143,-2.5 0,0.2381 0,0.95239 0,0.71429 0,-1.78192 0.269844,-4.00527 0,-5.71429 -0.41889,-2.65297 -1.305258,-5.21462 -1.785715,-7.85714 -0.898841,-4.94362 -1.549592,-10.24373 -3.214285,-15 -0.475196,-1.3577 -1.31052,-2.57087 -1.785715,-3.92857 -0.725162,-2.07189 -0.773819,-4.33336 -1.428571,-6.42857 -0.540856,-1.73074 -1.762923,-3.22697 -2.142857,-5 -0.174608,-0.81484 0.202113,-1.69155 0,-2.5 -0.168359,-0.67344 -0.925982,-1.10696 -1.071429,-1.78572 -0.224495,-1.04764 0.240921,-2.17029 0,-3.21428 -0.133845,-0.58 -0.714286,-0.95238 -1.071428,-1.42857 -0.238096,-0.71429 -0.599799,-1.39869 -0.714286,-2.14286 -0.0737,-0.47903 0.06317,-4.01118 0,-4.64286 -0.04884,-0.48841 -0.296261,-0.94151 -0.357143,-1.42857 -0.05906,-0.47251 0.150585,-0.97682 0,-1.42857 -0.381634,-1.1449 -0.714286,-0.33598 -0.714286,-2.14286"
         id="path2985"
         style="fill:#e7cf99;fill-opacity:1;stroke:#000000;stroke-width:1px;stroke-linecap:butt;stroke-linejoin:miter;stroke-opacity:1" />
      <path
         d="M 38.571429,75.142857 C 35.106371,73.765219 31.334011,74.071428 27.5,74.071428 c -0.65235,0 -2.664468,-0.366544 -3.214286,0 -0.22149,0.147661 -0.168912,0.526055 -0.357143,0.714286 -0.594159,0.59416 -2.108227,0.253254 -2.5,1.428572 -0.112938,0.338815 0.15972,0.75199 0,1.071428 -0.210957,0.421916 -0.808771,0.677443 -1.071428,1.071429 -0.716356,1.074534 -1.723414,2.313097 -2.142857,3.571428 -0.866078,2.598234 6.937636,4.030385 8.214285,4.285715 4.981567,0.996313 9.946762,0.714285 15,0.714285 1.190477,0 2.409302,0.258251 3.571429,0 2.332079,-0.518239 0.814015,-0.423628 1.785714,-1.071428 1.992039,-1.328026 -0.504293,0.416003 1.428572,-0.357143 1.937262,-0.774905 3.478616,-2.219087 5,-3.571429 0.365558,-0.324941 2.965919,-2.236226 3.214286,-2.857143 0.265279,-0.663197 -0.117428,-1.43829 0,-2.142857 0.193334,-1.160005 1.575077,-4.423097 0.714285,-5.714285 C 56.332356,69.998534 49.894776,68.138029 48.928572,68 c -9.051185,-1.293026 2.816429,1.277572 -5.357143,-0.357143 -1.925256,-0.385051 -3.768125,-1.169083 -5.714286,-1.428571 -1.12395,-0.14986 -6.776778,-0.405137 -7.857143,0 -0.557339,0.209002 -0.884636,0.829679 -1.428571,1.071428 -0.554708,0.246537 -1.231007,0.110606 -1.785715,0.357143 -1.576088,0.700484 -3.217093,2.114265 -5,2.857143 -1.707033,0.711264 -3.753437,1.180634 -5.357143,2.142857 -0.228263,0.136958 -0.168912,0.526055 -0.357142,0.714286"
         transform="translate(0,924.36218)"
         id="path2987"
         style="fill:#ff0000;fill-opacity:1;stroke:#000000;stroke-width:1px;stroke-linecap:butt;stroke-linejoin:miter;stroke-opacity:1" />
      <path
         d="m 27.857143,86.571429 c 0.182185,0.74549 0.364389,5.721532 0.714286,6.071428 0.327389,0.327389 3.055891,-0.942544 3.571428,-1.071428"
         transform="translate(0,924.36218)"
         id="path2989"
         style="fill:none;stroke:#000000;stroke-width:1px;stroke-linecap:butt;stroke-linejoin:miter;stroke-opacity:1" />
      <path
         d="m 39.642857,84.785714 c -1.39887,1.084627 -1.268455,8.411313 -1.428571,8.571429 -0.45332,0.45332 -1.185442,-0.489184 -1.785715,-0.714286 -2.181423,-0.818034 -0.850568,0.06145 -3.571428,-0.357143 -0.856602,-0.131785 -1.6473,-0.559249 -2.5,-0.714285 -0.680213,-0.123676 -3.154489,0.41694 -3.571429,0 -0.08418,-0.08418 0.08418,-0.272964 0,-0.357143 -0.118825,-0.118826 -1.356497,0.02402 -1.428571,0 -1.323967,-0.441323 0.43534,-0.357143 -0.714286,-0.357143"
         transform="translate(0,924.36218)"
         id="path2991"
         style="fill:#c0c0c0;fill-opacity:1;stroke:#000000;stroke-width:1px;stroke-linecap:butt;stroke-linejoin:miter;stroke-opacity:1" />
      <path
         d="m 15.714286,93 c 5.8454,-0.773877 11.940226,-0.357143 17.857143,-0.357143 3.690476,0 7.380952,0 11.071428,0 2.02381,0 4.061481,0.236465 6.071429,0 0.974968,-0.114702 1.884062,-0.584542 2.857143,-0.714286 0.826023,-0.110136 1.678005,0.137 2.5,0 0.632368,-0.105394 1.177522,-0.511555 1.785714,-0.714285 0.747198,-0.249066 2.098594,0 2.857143,0 0.238095,0 0.714286,-0.238096 0.714286,0 0,0.421284 -3.093068,2.375525 -3.571429,3.571428 C 57.717329,95.13525 57.619048,95.5 57.5,95.857143 57.142857,96.333333 56.69477,96.753317 56.428572,97.285714 56.06134,98.020176 55.118083,100.3877 55,101.21429 c -0.134687,0.9428 0.301169,1.95363 0,2.85714 -0.106479,0.31944 -0.527508,0.43412 -0.714286,0.71428 -0.420767,0.63116 0,3.16997 0,3.92858 0,0.43103 0.02337,4.61948 0,4.64285 -0.293923,0.29393 -4.566041,0 -5.357142,0 -10.357143,0 -20.714286,0 -31.071429,0 -0.412779,0 -7.138273,0.005 -7.142857,0 -0.266544,-0.26654 0,-2.94475 0,-3.21428 0,-3.27761 0.325295,-6.74705 0,-10 -0.50151,-5.015096 -0.357143,2.71129 -0.357143,-3.214289 0,-1.547619 0,-3.095238 0,-4.642857 0,-0.47619 0,-0.952381 0,-1.428571 0,-0.357143 -0.357143,-1.071429 0,-1.071429 0.694161,0 1.190476,0.714286 1.785714,1.071429 1.190476,0.714286 2.313355,1.555756 3.571429,2.142857 1.979603,0.923815 5.046895,0.357143 7.142857,0.357143"
         transform="translate(0,924.36218)"
         id="path2993"
         style="fill:#ffff00;fill-opacity:1;stroke:#000000;stroke-width:1px;stroke-linecap:butt;stroke-linejoin:miter;stroke-opacity:1" />
      <path
         d="m 66.729372,984.80583 c 4.940493,2.23831 9.587433,3.78869 15.112686,3.78869"
         id="path2995"
         style="fill:none;stroke:#000000;stroke-width:1.60159874px;stroke-linecap:butt;stroke-linejoin:miter;stroke-opacity:1" />
      <path
         d="m 67.781811,993.28768 c -2.321042,0.47759 13.929143,1.58101 11.208329,1.58101"
         id="path2997"
         style="fill:none;stroke:#000000;stroke-width:1.70127308px;stroke-linecap:butt;stroke-linejoin:miter;stroke-opacity:1" />
      <path
         d="m 87.15625,71.21875 c 0,-0.714286 -0.07888,1.415083 0,2.125 z m 0,2.125 c 0.105991,0.953922 0.04024,1.96446 0.34375,2.875 0.19549,0.586469 0.875953,1.128336 1.0625,1.78125 0.130819,0.457868 -0.06734,0.966096 0,1.4375 0.673435,4.714046 0.02912,-1.666901 0.71875,1.78125 0.303108,1.515536 0,3.447731 0,5 l 0,8.5625 c 0.101597,-0.101596 1.157588,-0.950535 1.4375,-1.0625 0.331599,-0.13264 0.723685,0.112938 1.0625,0 0.757615,-0.252538 1.385793,-0.852375 2.15625,-1.0625 1.517145,-0.413767 3.725807,0 5.34375,0 1.37143,0 11.58917,0.19208 11.78125,0 0.17857,-0.178571 0.19643,-0.540178 0.375,-0.71875 0.18823,-0.18823 0.53052,-0.18677 0.71875,-0.375 0.13747,-0.137475 -0.368,-9.26684 -0.375,-9.28125 -0.15058,-0.301169 -0.56817,-0.41758 -0.71875,-0.71875 -0.75169,-1.50338 0.453,-6.690438 0.375,-8.21875 z m 2.125,21.4375 c -0.252538,0.252538 0,1.419643 0,1.0625 z m 28.5625,-4.625 c 0,2.867456 0.2068,7.163596 1.4375,9.625 0.14286,0.28572 -0.14285,0.77679 0,1.0625 0.0532,0.10648 0.2908,-0.0842 0.375,0 0.16836,0.16836 -0.0753,0.49287 0,0.71875 0.3911,1.17331 1.42173,2.14018 1.78125,3.21875 0.11294,0.33882 -0.25254,0.80996 0,1.0625 0.35687,0.35687 1.6129,1.4325 2,2.15625 z M 123.4375,108 l 0.125,0.34375 c 0,-0.10251 -0.0548,-0.21249 -0.125,-0.34375 z m 0.125,0.34375 c -0.0783,-0.0587 -0.20031,-0.1024 -0.3125,-0.15625 0.18148,0.22609 0.3125,0.36143 0.3125,0.15625 z M 123.25,108.1875 c -0.34499,-0.4298 -0.85972,-1.21829 -1.09375,-0.90625 -0.29845,0.39792 0.52335,0.63245 1.09375,0.90625 z m -11.09375,-16.25 c 0,-0.119047 -0.0842,0.25957 0,0.34375 z m 0,0.34375 0,1.0625 -21.09375,0.0089 c -0.05481,1.39303 -0.354936,5.712126 -0.71875,6.80357 -0.307653,0.92296 0.07026,1.80874 -0.34375,2.84375 -0.18499,0.46248 -0.906544,0.96963 -1.0625,1.4375 -0.07529,0.22588 0.07529,0.49287 0,0.71875 -0.141018,0.42305 -0.892953,0.6609 -1.09375,1.0625 -0.09531,0.19062 0.09531,0.52813 0,0.71875 -0.289199,0.5784 -0.867738,1.19696 -1.0625,1.78125 -0.295622,0.88686 0.06907,2.0181 -0.34375,2.84375 -0.05324,0.10648 -0.290821,-0.0842 -0.375,0 -0.168359,0.16836 0.168358,0.5504 0,0.71875 -0.303513,0.30352 -1.102667,0.87054 -0.71875,1.0625 1.002576,0.50129 2.116859,-0.47089 2.875,-0.6875 1.490101,-0.42575 3.482045,0.25299 5,0 0.742679,-0.12378 1.382321,-0.59497 2.125,-0.71875 2.428345,-0.40472 5.05661,0.30543 7.5,0 2.78402,-0.348 6.24705,-1.78125 8.9375,-1.78125 l 8.5625,0 2.875,0 1.0625,0 c -2.29891,0 -4.00292,-2.66209 -5,-4.65625 -0.28571,-0.57143 -1.15178,-0.86607 -1.4375,-1.4375 -0.10648,-0.21296 0.0753,-0.49287 0,-0.71875 -0.0532,-0.15972 -0.2247,-0.2247 -0.34375,-0.34375 -0.11905,-0.2381 -0.27919,-0.4605 -0.34375,-0.71875 -0.17499,-0.69993 -0.20001,-1.08131 -0.375,-1.78125 -0.17742,-0.709688 -0.79137,-1.10341 -1.0625,-1.781249 -0.13982,-0.349536 -0.28369,-0.697278 -0.375,-1.0625 -0.0577,-0.230986 0.16836,-0.550391 0,-0.71875 -0.29877,-0.298774 -1.06862,-0.756122 -1.40625,-1.09375 -0.16509,-0.165095 0.10782,-0.846866 0,-1.0625 -0.81725,-1.634502 0.14356,1.524434 -0.71875,-1.0625 -0.22667,-0.680006 -0.73419,-1.10919 -1.0625,-1.4375 z"
         transform="translate(0,924.36218)"
         id="path3767"
         style="fill:#d8d8d8;fill-opacity:1;stroke:#000000;stroke-width:1px;stroke-linecap:butt;stroke-linejoin:miter;stroke-opacity:1" />
      <path
         d="m 85.371604,1034.7942 c -0.833165,-2.1222 -0.772485,-4.3321 -1.850355,-6.4048 -0.206478,-0.3971 -0.718697,-0.6704 -0.925176,-1.0675 -0.416348,-0.8007 0,-2.6871 0,-3.5582 0,-1.7792 0,-3.5582 0,-5.3374 0,-0.9708 -0.925178,-0.7162 -0.925178,-1.4232 0,-0.1187 0,-0.4745 0,-0.3558 0,0.055 -0.320844,2.0259 0.925178,1.0674 0.231294,-0.1779 -0.115652,-0.8006 0,-1.0674 0.303715,-0.7009 0.738598,-1.4174 0.925176,-2.135 0.330521,-1.2712 -0.743609,-3.4818 0,-4.6257 0.571622,-0.8794 0.462589,0.1229 0.462589,-0.7117 0,-0.7176 0.08323,-1.5512 0.462588,-2.1349 0.06896,-0.106 0.39363,0.1061 0.462589,0 0.395181,-0.6079 -0.156842,-2.3701 0.462589,-2.8465 0.109033,-0.084 0.353554,0.084 0.462588,0 0.308393,-0.2373 -0.308392,-1.1861 0,-1.4234 0.109033,-0.084 0.39363,0.1061 0.46259,0 0.104464,-0.1607 1.387764,-3.09951 1.387764,-3.20235 0,-0.47443 0,-1.89772 0,-1.42329 0,0.23721 0,0.47442 0,0.71164"
         id="path3771"
         style="fill:#d8d8d8;fill-opacity:1;stroke:#000000;stroke-width:1.13598406px;stroke-linecap:butt;stroke-linejoin:miter;stroke-opacity:1" />
      <path
         d="m 112.5,77.285714 c 0,0.476191 -0.15058,0.976818 0,1.428572 0.10761,0.322843 2.00726,2.943098 2.14286,3.214285 0.21951,0.439026 0.13763,0.989546 0.35714,1.428572 0.2662,0.532397 0.74125,0.933303 1.07143,1.428571 0.67321,1.009815 1.04154,3.184403 1.78571,3.928572 0.0842,0.08418 0.30391,-0.10648 0.35715,0 0.10648,0.212959 -0.0753,0.488408 0,0.714285 0.37991,1.139756 1.15094,3.650944 1.78571,4.285715"
         transform="translate(0,924.36218)"
         id="path3775"
         style="fill:none;stroke:#000000;stroke-width:1px;stroke-linecap:butt;stroke-linejoin:miter;stroke-opacity:1" />
      <path
         d="m 97.857143,89.428571 c 0,-3.333333 0,-6.666666 0,-10 0.717823,-0.710691 3.571447,0.714267 4.285717,0 0.47619,-0.47619 -0.59524,-0.357143 0.35714,-0.357143"
         transform="translate(0,924.36218)"
         id="path3777"
         style="fill:none;stroke:#000000;stroke-width:1px;stroke-linecap:butt;stroke-linejoin:miter;stroke-opacity:1" />
      <path
         d="M 98.571429,84.785714 C 99.93806,83.853 101.30367,84.071429 102.85714,84.071429"
         transform="translate(0,924.36218)"
         id="path3779"
         style="fill:none;stroke:#000000;stroke-width:1px;stroke-linecap:butt;stroke-linejoin:miter;stroke-opacity:1" />
      <path
         d="m 24.916204,961.41545 c 0,1.05482 0.08014,-0.43952 -0.240418,0.2637 -0.228879,0.50211 0.05254,1.36394 -0.240417,1.84595 -0.0994,0.16354 -0.354123,0.12472 -0.480834,0.2637 -0.104122,0.11421 -0.377392,0.88463 -0.480835,1.05482 -0.0994,0.16355 -0.400696,0.0879 -0.480835,0.26372 -0.07168,0.15724 0,0.3516 0,0.52741 -0.160279,0.3516 -0.320557,0.70321 -0.480835,1.05482 -0.320557,-0.35161 -0.641113,-0.70322 -0.96167,-1.05482 -0.24794,-0.27196 -1.077748,-1.51405 -1.202087,-1.58224 -0.425592,-0.23341 -0.08215,0.39224 -0.480835,-0.26371 -0.422025,-0.69436 -0.685471,-1.27928 -1.202087,-1.84594 -0.126711,-0.13899 -0.354123,-0.12472 -0.480835,-0.26371 -0.204315,-0.2241 -0.276518,-1.01522 -0.480835,-0.79112 -0.17,0.18647 0,0.52742 0,0.79112 m 1.682922,-20.04169 c 1.08596,0.55768 2.378514,1.08787 3.365844,1.84594 0.371387,0.28516 0.556194,0.83246 0.96167,1.05483 0.286715,0.15724 0.647338,-0.069 0.961669,0 0.09626,0.0211 1.163942,0.97115 1.202088,1.05483 0.0746,0.16365 0,0.93752 0,1.05483 m -7.693358,-7.6475 c 0.239559,1.10672 -0.198111,1.44303 -0.480835,2.37336 -0.0654,0.21521 -0.240416,4.49107 -0.240416,5.01042 0,0.65665 -0.289771,0.95352 -0.480835,1.58224 -0.02535,0.0834 -0.04446,0.33685 0,0.26371 0.315045,-0.51834 1.442504,-2.57535 1.442504,-3.16448 m 0.240417,-5.80154 c 0.494775,0.37709 -0.247387,1.12999 0,1.58224 0.17493,0.31979 0.508855,0.4999 0.721253,0.79112 0.476912,0.65388 0.711327,2.14564 0.961669,2.90077 0.987979,2.98013 0.09579,0.10195 0.480835,3.69189 0.172656,1.60973 0.798486,3.13579 0.96167,4.74671 0.294352,2.90579 0,6.03845 0,8.96603 0,0.2673 0.304785,7.26127 -0.721252,5.01041"
         id="path3805"
         style="fill:none;stroke:#000000;stroke-width:0.70501989px;stroke-linecap:butt;stroke-linejoin:miter;stroke-opacity:1" />
      <path
         d="m 92.425032,924.98857 c 0.351364,0.77631 -0.263523,1.70943 0,2.5 0.336717,1.01015 1.064685,1.85645 1.428571,2.85714 1.238929,3.40705 1.840041,6.899 2.857142,10.35714 0.287004,0.97581 0.871951,1.85975 1.071429,2.85714 0.495942,2.47972 0,5.6862 0,8.21429 0,7.02381 0,14.04762 0,21.07143 0,4.28571 0,8.57143 0,12.85713 0,4.5238 0,9.0476 0,13.5714 0,0.2942 -0.189076,1.95376 0,2.14286 0.168359,0.1684 0.501327,0.1065 0.714285,0 1.246134,-0.6231 1.988211,-2.54776 2.500001,-3.57136 0.11905,-0.2381 0.59524,-0.1191 0.71429,-0.3572 0.21295,-0.4259 -0.15059,-0.9768 0,-1.4285 0.47816,-1.4345 1.03177,-2.6986 1.42857,-4.2858 0.22087,-0.8834 -0.28689,-1.9964 0,-2.8571 0.28312,-0.8494 0.49819,-1.6356 0.71428,-2.5 0.1155,-0.462 -0.15058,-0.9768 0,-1.4286 0.79115,-2.37343 1.78572,-5.2686 1.78572,-7.85712 0,-2.38095 0,-4.7619 0,-7.14285 0,-0.95239 0,-1.90477 0,-2.85715 0,-0.23809 -0.2381,-0.71428 0,-0.71428 0.0469,0 -0.0649,3.24712 0,3.57143 0.19683,0.98416 0.95745,10.24316 1.07143,10.35714 0.16835,0.16836 0.47619,0 0.71428,0 0.30875,0 1.89333,0.16635 2.14286,0 0.22149,-0.14766 0.16891,-0.52606 0.35714,-0.71429 0.15467,-0.15467 1.19807,-0.56062 1.42857,-0.71428 0.64978,-0.43319 0.009,-0.72301 0.35714,-1.07143 0.18824,-0.18823 0.52606,-0.16891 0.71429,-0.35714 0.22352,-0.22352 0.86883,-1.73767 1.07143,-2.14286 0.60151,-1.20303 1.45499,-2.24855 1.78571,-3.57143 0.0866,-0.34648 -0.15972,-0.75199 0,-1.07143 0.11905,-0.23809 0.59524,-0.83333 0.35715,-0.71428 -1.31613,0.65806 -1.56347,4.84134 -1.07143,6.07142 0.73416,1.83541 2.07807,3.53932 2.85714,5.35715 0.93599,2.18397 1.29844,3.4905 3.57143,1.78571 0.21296,-0.15972 0.58221,-0.12602 0.71428,-0.35714 0.37356,-0.65372 0.43466,-1.44379 0.71429,-2.14286 1.1803,-2.95074 3.21429,-5.68544 3.21429,-8.92857 0,-1.30952 0,-2.61905 0,-3.92857 0,-0.35714 0,-1.42857 0,-1.07143 0,4.1114 0.31943,-1.15574 -0.71429,1.42857 -0.25624,0.64061 -0.19173,6.37594 0,7.14286 0.25825,1.033 0.7634,2.02568 1.42857,2.85714 0.16629,0.20787 0.55457,0.14419 0.71429,0.35714 0.22587,0.30117 0.13126,0.77026 0.35714,1.07143 0.26404,0.35206 2.86583,1.06274 3.21429,0.71429 1.09621,-1.09622 -0.20867,-0.29696 0.35714,-1.42857 0.45566,-0.91133 0.82713,-0.82713 1.42857,-1.42857 0.25254,-0.25254 -0.19811,-0.77427 0,-1.07143 0.14766,-0.22149 0.52606,-0.16891 0.71429,-0.35715 0.96648,-0.96648 0.35714,-2.59007 0.35714,-2.5 0,0.2381 0,0.95239 0,0.71429 0,-1.78192 0.26984,-4.00527 0,-5.71429 -0.41889,-2.65297 -1.30526,-5.21462 -1.78572,-7.85714 -0.89884,-4.94362 -1.54959,-10.24373 -3.21428,-15 -0.4752,-1.3577 -1.31052,-2.57087 -1.78572,-3.92857 -0.72516,-2.07189 -0.77381,-4.33336 -1.42857,-6.42857 -0.54085,-1.73074 -1.76292,-3.22697 -2.14285,-5 -0.17461,-0.81484 0.20211,-1.69155 0,-2.5 -0.16836,-0.67344 -0.92599,-1.10696 -1.07143,-1.78572 -0.2245,-1.04764 0.24092,-2.17029 0,-3.21428 -0.13385,-0.58 -0.71429,-0.95238 -1.07143,-1.42857 -0.2381,-0.71429 -0.5998,-1.39869 -0.71429,-2.14286 -0.0737,-0.47903 0.0632,-4.01118 0,-4.64286 -0.0488,-0.48841 -0.29626,-0.94151 -0.35714,-1.42857 -0.0591,-0.47251 0.15059,-0.97682 0,-1.42857 -0.38163,-1.1449 -0.71429,-0.33598 -0.71429,-2.14286"
         id="path2985-6"
         style="fill:#e7cf99;fill-opacity:1;stroke:#000000;stroke-width:1px;stroke-linecap:butt;stroke-linejoin:miter;stroke-opacity:1" />
      <path
         d="m 93.412664,965.82755 c 0,1.05482 0.08014,-0.43952 -0.240418,0.2637 -0.228879,0.50211 0.05254,1.36394 -0.240417,1.84595 -0.0994,0.16354 -0.354123,0.12472 -0.480834,0.2637 -0.104122,0.11421 -0.377392,0.88463 -0.480835,1.05482 -0.0994,0.16355 -0.400696,0.0879 -0.480835,0.26372 -0.07168,0.15724 0,0.3516 0,0.52741 -0.160279,0.3516 -0.320557,0.70321 -0.480835,1.05482 -0.320557,-0.35161 -0.641113,-0.70322 -0.96167,-1.05482 -0.24794,-0.27196 -1.077748,-1.51405 -1.202087,-1.58224 -0.425592,-0.23341 -0.08215,0.39224 -0.480835,-0.26371 -0.422025,-0.69436 -0.685471,-1.27928 -1.202087,-1.84594 -0.126711,-0.13899 -0.354123,-0.12472 -0.480835,-0.26371 -0.204315,-0.2241 -0.276518,-1.01522 -0.480835,-0.79112 -0.17,0.18647 0,0.52742 0,0.79112 m 1.682922,-20.04169 c 1.08596,0.55768 2.378514,1.08787 3.365844,1.84594 0.371387,0.28516 0.556194,0.83246 0.96167,1.05483 0.286715,0.15724 0.647338,-0.069 0.961669,0 0.09626,0.0211 1.163942,0.97115 1.202088,1.05483 0.0746,0.16365 0,0.93752 0,1.05483 m -7.693358,-7.6475 c 0.239559,1.10672 -0.198111,1.44303 -0.480835,2.37336 -0.0654,0.21521 -0.240416,4.49107 -0.240416,5.01042 0,0.65665 -0.289771,0.95352 -0.480835,1.58224 -0.02535,0.0834 -0.04446,0.33685 0,0.26371 0.315045,-0.51834 1.442504,-2.57535 1.442504,-3.16448 m 0.240417,-5.80154 c 0.494775,0.37709 -0.247387,1.12999 0,1.58224 0.17493,0.31979 0.508855,0.4999 0.721253,0.79112 0.476912,0.65388 0.711327,2.14564 0.961669,2.90077 0.987979,2.98013 0.09579,0.10195 0.480835,3.69189 0.172656,1.60973 0.798486,3.13579 0.96167,4.74671 0.294352,2.90579 0,6.03845 0,8.96603 0,0.2673 0.304785,7.26127 -0.721252,5.01041"
         id="path3805-6"
         style="fill:none;stroke:#000000;stroke-width:0.70501989px;stroke-linecap:butt;stroke-linejoin:miter;stroke-opacity:1" />
    </g>
  </g>
</svg>
