<?xml version="1.0" encoding="UTF-8" standalone="no"?>
<!-- Created with Inkscape (http://www.inkscape.org/) -->

<svg
   xmlns:dc="http://purl.org/dc/elements/1.1/"
   xmlns:cc="http://creativecommons.org/ns#"
   xmlns:rdf="http://www.w3.org/1999/02/22-rdf-syntax-ns#"
   xmlns:svg="http://www.w3.org/2000/svg"
   xmlns="http://www.w3.org/2000/svg"
   xmlns:sodipodi="http://sodipodi.sourceforge.net/DTD/sodipodi-0.dtd"
   xmlns:inkscape="http://www.inkscape.org/namespaces/inkscape"
   width="128"
   height="128"
   id="svg2"
   version="1.1"
   inkscape:version="0.48.4 r9939"
   sodipodi:docname="mode_joystick.svg">
  <defs
     id="defs4" />
  <sodipodi:namedview
     id="base"
     pagecolor="#ffffff"
     bordercolor="#666666"
     borderopacity="1.0"
     inkscape:pageopacity="0.0"
     inkscape:pageshadow="2"
     inkscape:zoom="2.8"
     inkscape:cx="-27.289935"
     inkscape:cy="21.918248"
     inkscape:document-units="px"
     inkscape:current-layer="layer1"
     showgrid="false"
     inkscape:window-width="1920"
     inkscape:window-height="1028"
     inkscape:window-x="-3"
     inkscape:window-y="-3"
     inkscape:window-maximized="1"
     showguides="true"
     inkscape:guide-bbox="true">
    <sodipodi:guide
       orientation="1,0"
       position="-13.928571,117.5"
       id="guide3917" />
  </sodipodi:namedview>
  <metadata
     id="metadata7">
    <rdf:RDF>
      <cc:Work
         rdf:about="">
        <dc:format>image/svg+xml</dc:format>
        <dc:type
           rdf:resource="http://purl.org/dc/dcmitype/StillImage" />
        <dc:title></dc:title>
      </cc:Work>
    </rdf:RDF>
  </metadata>
  <g
     inkscape:label="Layer 1"
     inkscape:groupmode="layer"
     id="layer1"
     transform="translate(0,-924.36218)">
    <path
       style="fill:#ff0000;fill-opacity:1;stroke:#000000;stroke-width:0.55721939px;stroke-linecap:butt;stroke-linejoin:miter;stroke-opacity:1"
       d="m 24.614447,1004.5007 c -1.991725,-0.7442 -4.160089,-0.5788 -6.36389,-0.5788 -0.374972,0 -1.531543,-0.198 -1.847581,0 -0.127312,0.08 -0.09709,0.2842 -0.205286,0.3858 -0.341524,0.321 -1.211815,0.1368 -1.437008,0.7717 -0.06492,0.183 0.09181,0.4062 0,0.5788 -0.121258,0.2278 -0.464883,0.3659 -0.615859,0.5787 -0.411763,0.5805 -0.990623,1.2495 -1.23172,1.9292 -0.497824,1.4035 3.987772,2.1771 4.721594,2.315 2.863419,0.5382 5.717428,0.3859 8.622044,0.3859 0.684289,0 1.384873,0.1395 2.052867,0 1.340486,-0.2799 0.467899,-0.2288 1.026434,-0.5788 1.14503,-0.7174 -0.289869,0.2247 0.821147,-0.1929 1.113544,-0.4186 1.999519,-1.1987 2.874015,-1.9292 0.210124,-0.1755 1.704819,-1.2079 1.847581,-1.5434 0.152483,-0.3582 -0.0675,-0.7769 0,-1.1574 0.111129,-0.6267 0.905359,-2.3893 0.410573,-3.0867 -0.465878,-0.6568 -4.166218,-1.6618 -4.721595,-1.7363 -5.202647,-0.69849 1.618892,0.6901 -3.079301,-0.193 -1.106643,-0.208 -2.16593,-0.63146 -3.284589,-0.77163 -0.646049,-0.081 -3.895311,-0.21884 -4.516308,0 -0.32036,0.1129 -0.508492,0.44813 -0.821147,0.57873 -0.318848,0.1332 -0.707587,0.06 -1.026434,0.1929 -0.90594,0.3784 -1.849195,1.1421 -2.874014,1.5434 -0.981207,0.3842 -2.157486,0.6377 -3.079301,1.1575 -0.131206,0.074 -0.09709,0.2842 -0.205286,0.3858"
       id="path2987"
       inkscape:connector-curvature="0" />
    <path
       style="fill:none;stroke:#000000;stroke-width:0.55721939px;stroke-linecap:butt;stroke-linejoin:miter;stroke-opacity:1"
       d="m 18.455844,1010.6741 c 0.104721,0.4026 0.209452,3.0906 0.410574,3.2796 0.188184,0.1768 1.756535,-0.5091 2.052867,-0.5788"
       id="path2989"
       inkscape:connector-curvature="0" />
    <path
       style="fill:#c0c0c0;fill-opacity:1;stroke:#000000;stroke-width:0.55721939px;stroke-linecap:butt;stroke-linejoin:miter;stroke-opacity:1"
       d="m 25.230307,1009.7094 c -0.804075,0.5859 -0.729112,4.5436 -0.821147,4.6301 -0.26057,0.2449 -0.681395,-0.2642 -1.026434,-0.3858 -1.253888,-0.4419 -0.488909,0.033 -2.052867,-0.1929 -0.492378,-0.071 -0.946873,-0.3022 -1.437008,-0.3859 -0.390988,-0.067 -1.813209,0.2252 -2.052867,0 -0.04839,-0.045 0.04839,-0.1474 0,-0.1929 -0.0683,-0.064 -0.779719,0.013 -0.821147,0 -0.76102,-0.2384 0.250235,-0.1929 -0.410574,-0.1929"
       id="path2991"
       inkscape:connector-curvature="0" />
    <path
       style="fill:#ffff00;fill-opacity:1;stroke:#000000;stroke-width:0.55721939px;stroke-linecap:butt;stroke-linejoin:miter;stroke-opacity:1"
       d="m 11.476096,1014.1466 c 3.359952,-0.418 6.863275,-0.1929 10.264336,-0.1929 2.121297,0 4.242593,0 6.363889,0 1.163293,0 2.334552,0.1277 3.489876,0 0.560414,-0.062 1.082964,-0.3158 1.642294,-0.3859 0.4748,-0.06 0.964522,0.074 1.437007,0 0.363487,-0.057 0.676843,-0.2763 1.026434,-0.3858 0.429491,-0.1345 1.206278,0 1.642294,0 0.136857,0 0.410573,-0.1286 0.410573,0 0,0.2276 -1.777904,1.2832 -2.052867,1.9292 -0.08037,0.1888 -0.136858,0.3859 -0.205287,0.5788 -0.205287,0.2572 -0.462849,0.484 -0.61586,0.7716 -0.211086,0.3968 -0.753273,1.6756 -0.821148,2.1222 -0.07742,0.5092 0.173113,1.0553 0,1.5433 -0.0612,0.1725 -0.303213,0.2345 -0.410573,0.3858 -0.241858,0.341 0,1.7124 0,2.1222 0,0.2328 0.01343,2.4953 0,2.5079 -0.168948,0.1588 -2.624574,0 -3.079301,0 -5.953316,0 -11.906632,0 -17.859947,0 -0.237266,0 -4.1031004,0 -4.1057344,0 -0.153211,-0.144 0,-1.5907 0,-1.7363 0,-1.7705 0.18698,-3.6445 0,-5.4017 -0.28827,-2.709 -0.205287,1.4645 -0.205287,-1.7363 0,-0.836 0,-1.672 0,-2.5079 0,-0.2573 0,-0.5145 0,-0.7717 0,-0.1929 -0.205287,-0.5787 0,-0.5787 0.399005,0 0.684289,0.3858 1.026433,0.5787 0.6842894,0.3858 1.3297234,0.8404 2.0528684,1.1575 1.137881,0.499 2.900969,0.1929 4.105734,0.1929"
       id="path2993"
       inkscape:connector-curvature="0" />
    <path
       style="fill:none;stroke:#000000;stroke-width:1.36868762999999993px;stroke-linecap:round;stroke-linejoin:miter;stroke-opacity:1"
       d="m 43.973055,994.42063 c 4.231066,1.90871 8.210731,3.2308 12.94259,3.2308"
       id="path2995"
       inkscape:connector-curvature="0" />
    <path
       style="fill:none;stroke:#000000;stroke-width:1.45386696000000004px;stroke-linecap:round;stroke-linejoin:miter;stroke-opacity:1"
       d="m 45.853949,1001.3424 c -1.987753,0.4073 11.928997,1.3482 9.598877,1.3482"
       id="path2997"
       inkscape:connector-curvature="0" />
    <path
       style="fill:#5a5a5a;fill-opacity:1;stroke:#000000;stroke-width:1.03375602px;stroke-linecap:butt;stroke-linejoin:miter;stroke-opacity:1"
       d="m 64.723716,1008.9087 c 0.145526,0.3407 -0.129994,0.8676 0,1.2154 0.04418,0.1182 0.199147,0.1562 0.252346,0.2701 0.03762,0.081 -0.0204,0.1827 0,0.2701 0.278975,1.1943 0.156616,0.419 0.504691,1.3504 0.183409,0.4907 0,2.3528 0,2.9709 0,0.18 0.09332,0.3903 0,0.5401 -0.05217,0.084 -0.20018,0.051 -0.252345,0.1351 -0.08412,0.135 0.04206,0.27 0,0.4051 -0.09142,0.2935 -0.262373,0.5616 -0.378519,0.8102 -0.03762,0.081 0.03762,0.1896 0,0.2701 -0.0532,0.1139 -0.199146,0.1562 -0.252345,0.2701 -0.395596,0.8468 -0.504691,2.1209 -0.504691,2.7008 0,0.4461 -0.04921,0.2438 0.252345,0.4051 0.06652,0.036 0,1.1336 0,1.2154 0,0.1546 -0.0091,1.0321 0.126173,1.0803 0.268597,0.096 3.733317,0.065 4.037528,0 0.184436,-0.039 0.32222,-0.2212 0.504692,-0.2701 0.163208,-0.044 0.340466,0.039 0.504691,0 0.437729,-0.019 0.733703,-0.4326 1.135555,-0.5401 0.54486,-0.1458 1.214378,0.099 1.766418,0 0.262377,-0.047 0.49466,-0.2233 0.757037,-0.2701 0.694701,-0.1239 1.444138,0.083 2.144937,0 1.336584,-0.159 2.679914,-0.135 4.037529,-0.135 1.303786,0 2.60757,0 3.911355,0 0.713654,0 1.568303,-0.1254 2.271111,0 0.262376,0.047 0.494659,0.2232 0.757036,0.27 1.226851,0.2189 2.550431,-0.1652 3.785183,0 1.645254,0.2202 3.261163,0.9112 4.920739,1.0804 0.921099,0.094 1.854333,-0.09 2.7758,0 0.468288,0.045 0.919613,0.2245 1.387901,0.27 1.376527,0.134 2.787177,-0.1339 4.163707,0 0.46829,0.046 0.92001,0.22 1.3879,0.2701 0.37664,0.04 0.75996,-0.05 1.13555,0 0.59544,0.08 0.94893,0.2701 1.51408,0.2701 0.0679,0 0.83745,0.282 0.8832,0.135 0.0534,-0.1711 0.11382,-1.4377 0,-1.6204 -0.066,-0.1059 -0.18636,-0.1642 -0.25234,-0.2701 -0.15738,-0.2527 -0.0139,-1.0301 -0.12617,-1.3504 -0.19753,-0.5638 -0.62241,-1.1792 -0.75704,-1.7556 -0.12864,-0.5507 0.12865,-1.2047 0,-1.7555 -0.10973,-0.4698 -0.27201,-0.8945 -0.37851,-1.3504 -0.087,-0.3724 0.11326,-0.8517 0,-1.2154 -0.14778,-0.4744 -0.25235,-0.6826 -0.25235,-1.2153 0,-0.1139 -0.0624,-0.7769 0,-0.8103 0.35826,-0.1917 0.25235,0.076 0.25235,-0.5401 0,-0.1724 0.0801,-0.9819 0.12617,-1.0804 0.0971,-0.2079 0.25234,-0.2245 0.25234,-0.4051 0,-0.2587 -0.10153,-1.2153 0.12617,-1.2153"
       id="path4095"
       inkscape:connector-curvature="0" />
    <path
       style="fill:#737373;fill-opacity:1;stroke:#000000;stroke-width:1px;stroke-linecap:butt;stroke-linejoin:miter;stroke-opacity:1"
       d="m 107.51254,971.89507 c 0.0733,0.59457 0.33201,4.61588 0.12627,4.92449 -0.0522,0.0783 -0.18599,0.0597 -0.25254,0.12627 -0.0553,0.0553 -0.25145,1.00797 -0.37881,1.26269 -0.0842,0.16836 0.0842,0.46299 0,0.63134 -0.14799,0.29599 -0.0388,0.40765 -0.12626,0.75762 -0.0144,0.0577 -0.0996,0.073 -0.12627,0.12627 -0.0831,0.16629 0.0591,0.45413 0,0.63134 -0.12833,0.38499 -0.19662,0.77204 -0.37881,1.13643 -0.19647,0.39294 0,1.45021 0,1.89403 0,1.43105 0,2.8621 0,4.29315 0,0.76937 -0.19047,4.79609 0,5.17703 0.0421,0.0842 0.18599,0.0597 0.25254,0.12627 0.0813,0.0813 -0.0397,0.3859 0,0.50508 0.10155,0.30467 0.16139,0.61045 0.25254,0.88388 0.11348,0.34045 -0.0872,0.78743 0,1.13642 0.0954,0.38149 0.12765,0.76178 0.25253,1.13642 0.19541,0.58622 0,2.52539 0,3.283 0,0.6014 0.18888,3.8836 0,4.1669 -0.066,0.099 -0.1865,0.1535 -0.25253,0.2525 -0.23275,0.3491 0.18899,1.1373 0,1.5152 -0.26634,0.5327 -0.10836,1.2269 -0.37881,1.7678 -0.10826,0.2165 0,0.8901 0,1.1364 0,0.067 -0.0406,0.6111 0,0.6314 0.15058,0.075 0.42978,0.1506 0.50507,0 0.0565,-0.113 -0.12626,-0.3788 0,-0.3788 0.12627,0 0,0.2525 0,0.3788 0,0.3788 0,0.7576 0,1.1364 0,0.774 0.1374,5.1548 0,5.4296 -0.0532,0.1065 -0.1865,0.1535 -0.25253,0.2525 -0.0968,0.1452 0,1.5592 0,1.894 0,0.5552 -0.16248,3.4632 0,3.7881 0.0532,0.1065 0.1865,0.1535 0.25253,0.2526 0.10569,0.1585 0.0415,0.588 0.12627,0.7576 0.0188,0.038 0.10745,-0.038 0.12627,0 0.11194,0.2239 0.0675,0.6988 0.25254,0.8839 0.0298,0.03 0.0965,-0.03 0.12627,0 0.0595,0.059 -0.0595,0.193 0,0.2525 0.16836,0.1684 0.46299,0.2104 0.63134,0.3788 0.0842,0.084 0.0421,0.2946 0.12627,0.3788 0.0113,0.011 0.37557,0.01 0.37881,0 0.12049,-0.241 0.18899,-1.5474 0.12627,-1.6415 -0.0522,-0.078 -0.18599,-0.06 -0.25254,-0.1263 -0.11511,-0.1151 0,-0.9555 0,-1.1364 0,-0.2342 0.10662,-0.7969 0,-1.0101 -0.0188,-0.038 -0.0965,0.03 -0.12627,0 -0.0287,-0.029 0,-3.7807 0,-4.0406 0,-0.3096 -0.1637,-1.2697 0,-1.5153 0.0522,-0.078 0.18599,-0.06 0.25254,-0.1262 0.0466,-0.047 0,-3.3359 0,-3.6618 0,-0.2535 0.15639,-1.2326 0,-1.389 -0.0666,-0.067 -0.18599,-0.06 -0.25254,-0.1263 -0.13495,-0.1349 0.14973,-4.073 0,-4.6719 -0.31064,-1.2426 -0.12627,-2.7362 -0.12627,-4.0406 0,-2.44124 0,-4.88245 0,-7.32365 0,-0.13877 -0.11214,-1.02428 0,-1.13642 0.0665,-0.0666 0.20034,-0.048 0.25254,-0.12627 0.1084,-0.16259 -0.0628,-0.56907 0,-0.75761 0.2065,-0.61949 0.30019,-1.40563 0.50508,-2.02031 0.0631,-0.1894 -0.0631,-0.44194 0,-0.63134 0.3189,-0.95669 0.12627,-2.25752 0.12627,-3.283 0,-0.23541 -0.0755,-0.65749 0,-0.88388 0.14705,-0.44116 -0.0163,-1.49896 0.12627,-1.6415 0.0298,-0.0298 0.0965,0.0298 0.12627,0 0.0507,-0.0507 -0.0238,-0.30739 0,-0.37881 0.0785,-0.23556 0.15727,-0.31454 0.25253,-0.50507 0.0674,-0.13469 -0.0673,-0.37039 0,-0.50508 0.28091,-0.56181 0.12627,-0.34434 0.12627,-0.88388 0,-0.14467 0.0572,-0.51692 0,-0.63135 -0.0532,-0.10648 -0.1993,-0.14606 -0.25254,-0.25254 -0.18757,-0.37514 -0.119,-0.98835 -0.25253,-1.38896 -0.0376,-0.11293 -0.2149,-0.1396 -0.25254,-0.25253 -0.0799,-0.11331 0.0399,-0.25902 0,-0.37881 -0.111,-0.333 -0.26995,-0.55731 -0.37881,-0.88389 -0.15417,-0.4625 0.0114,-0.7349 -0.25254,-1.26269 -0.0606,-0.12118 0.0404,-0.38381 0,-0.50507 -0.16546,-0.49638 -0.33333,-1.00001 -0.50507,-1.51523 -0.0274,-0.0821 0,-1.61003 0,-1.26269"
       id="path4101"
       inkscape:connector-curvature="0" />
    <path
       style="fill:#b1b1b1;fill-opacity:1;stroke:#000000;stroke-width:1px;stroke-linecap:butt;stroke-linejoin:miter;stroke-opacity:1"
       d="m 68.747932,981.61778 c 0.238628,1.82582 0.12627,3.71064 0.12627,5.55584 0,0.47215 0.138898,1.43105 0,1.89404 -0.07052,0.23507 -0.314233,0.39457 -0.378808,0.63134 -0.06645,0.24364 0.02097,0.50595 0,0.75762 -0.04713,0.56552 -0.146965,1.11363 -0.252538,1.6415 -0.123128,0.61564 0,1.38782 0,2.0203 0,0.87797 0.05647,-0.19764 -0.252538,0.88389 -0.03469,0.12141 0,0.25253 0,0.3788 -0.04209,0.16836 -0.07859,0.33822 -0.126269,0.50508 -0.111044,0.38865 -0.358737,0.6443 -0.505076,1.01015 -0.386893,0.96723 0.136053,-0.29656 -0.126269,0.88388 -0.04917,0.22127 -0.203369,0.41009 -0.252538,0.63135 -0.0042,0.0188 0.05566,0.77256 0,0.88388 -0.01882,0.0376 -0.107446,-0.0376 -0.12627,0 -0.120368,0.24074 0,2.54535 0,3.03045 0,0.3829 0.09181,0.8955 0,1.2627 -0.210419,0.8417 -0.297739,1.696 -0.505076,2.5254 -0.1227,0.4908 -0.504279,0.8807 -0.631345,1.3889 -0.0245,0.098 -0.114558,0.6197 -0.126269,0.6314 -0.06655,0.066 -0.200333,0.048 -0.252538,0.1263 -0.04669,0.07 0.04669,0.1825 0,0.2525 -0.05221,0.078 -0.200333,0.048 -0.252538,0.1263 -0.127988,0.1919 0.02391,0.7337 -0.378808,1.1364 -0.230568,0.2306 -0.02554,0.2029 -0.126269,0.5051 -0.01882,0.056 -0.168359,0.084 -0.126269,0.1262 0.223706,0.2237 1.131702,-0.2722 1.515229,-0.3788 0.453409,-0.1259 0.925973,-0.1683 1.38896,-0.2525 1.450153,-0.2637 2.948893,-0.6445 4.419417,-0.7576 1.782492,-0.1371 3.641973,0 5.42957,0 1.262691,0 2.531648,-0.1257 3.788072,0 1.91211,0.1912 3.768984,0.957 5.682108,1.1364 0.712401,0.067 1.432284,-0.042 2.146574,0 0.719217,0.042 1.427358,0.2102 2.146575,0.2525 1.176477,0.069 2.357022,0 3.535533,0 0.378808,0 0.764103,0.07 1.136422,0 0.845261,-0.1585 1.799986,-0.7737 2.525381,-1.1364 0.112939,-0.057 0.265869,0.056 0.378808,0 0.03765,-0.019 -0.02976,-0.096 0,-0.1263 0.03773,-0.038 0.48882,0 0.505076,0 0.135896,-0.034 0.655388,-0.1503 0.757614,-0.2525 0.02976,-0.03 -0.02976,-0.096 0,-0.1263 0.277467,-0.2774 1.186257,0.3494 1.262687,0.3788 1.44361,0.5553 3.26808,0.2526 4.79823,0.2526 0.13147,0 1.09152,0.09 1.13642,0 0.0753,-0.1506 0,-0.3367 0,-0.5051 0,-0.3788 -0.0418,-0.7599 0,-1.1364 0.0429,-0.3857 0.21393,-0.7503 0.25254,-1.1364 0.0921,-0.9214 0,-1.852 0,-2.778 0,-1.6415 0,-3.283 0,-4.92445 0,-0.54717 0.0627,-1.09794 0,-1.6415 -0.0644,-0.55785 -0.30915,-1.08429 -0.3788,-1.6415 -0.16035,-1.28278 0.0992,-2.62436 0,-3.91434 -0.0553,-0.71834 -0.20121,-1.42795 -0.25254,-2.14657 -0.0978,-1.36955 0,-2.79345 0,-4.16688 0,-2.18867 0,-4.37733 0,-6.566 0,-1.38475 0.42409,-1.38549 0.63134,-2.52538 0.103,-0.56646 -0.1248,-1.20617 0,-1.76776 0.0492,-0.22127 0.21199,-0.40835 0.25254,-0.63135 0,-2.17169 -0.11294,0.38196 0.25254,-1.26269 0.0283,-0.12718 -0.14463,-0.88388 0.12627,-0.88388 0.0421,0 0.10744,-0.0377 0.12627,0 0.0565,0.11294 0,0.25253 0,0.3788 0,0.0842 0.0753,0.2149 0,0.25254 -0.31551,0.15776 -0.89799,-0.0105 -1.26269,0.12627 -0.64545,0.24205 -1.05456,0.50508 -1.76777,0.50508 -1.26727,0 0.43073,-0.0277 -1.26269,0.12627 -1.32063,0.12005 -2.7073,0 -4.040616,0 -2.73583,0 -5.471659,0 -8.207489,0 -5.42957,0 -10.85914,0 -16.28871,0 -0.318935,0 -3.618483,-0.0433 -3.661803,0 -0.332906,0.3329 -0.05605,0.74343 -0.252538,1.13642 -0.05324,0.10648 -0.214892,0.1396 -0.252538,0.25254 -0.02662,0.0799 0.03765,0.17724 0,0.25253 -0.01882,0.0376 -0.09651,-0.0298 -0.126269,0 -0.04142,0.0414 -0.205424,0.41085 -0.252538,0.50508 -0.213301,0.4266 -0.139957,0.93863 -0.252539,1.38896 -0.02887,0.11549 -0.214892,0.1396 -0.252538,0.25254 -0.183547,0.55064 -0.320321,1.2135 -0.505076,1.76777 -0.03993,0.11978 0.05647,0.26586 0,0.3788 -0.540883,1.08177 0.05752,1.34862 -0.883884,2.52538 z"
       id="path4089"
       inkscape:connector-curvature="0" />
    <path
       style="fill:#636363;fill-opacity:1;stroke:#000000;stroke-width:1px;stroke-linecap:butt;stroke-linejoin:miter;stroke-opacity:1"
       d="m 82.006185,981.74405 c -0.25225,-0.0297 -1.775183,-0.28968 -2.020305,-0.12627 -1.149626,0.76642 0.458756,-0.0687 -0.505077,0.25254 -0.169407,0.0565 -0.230227,0.27976 -0.378807,0.37881 -0.466492,0.31099 0.46169,-0.71423 -0.378807,0.12627 -0.14467,0.14467 -0.505874,0.54849 -0.631345,0.75761 -0.06848,0.11413 -0.05244,0.26806 -0.12627,0.37881 -0.02335,0.035 -0.107446,-0.0376 -0.126269,0 -0.07529,0.15058 0.07529,0.35449 0,0.50508 -0.01882,0.0376 -0.107446,-0.0376 -0.126269,0 -0.0747,0.1494 -0.355033,1.18397 -0.252538,1.38896 0.10648,0.21295 0.373005,0.30697 0.505076,0.50507 0.06854,0.10281 0.170289,0.42283 0.252539,0.50508 0.390694,0.39069 2.921517,1.70204 3.282995,1.76777 0.248465,0.0452 0.50915,-0.0452 0.757615,0 0.223004,0.0406 0.409087,0.20808 0.631345,0.25253 0.790381,0.15808 1.72205,-0.0574 2.525382,0 2.018672,0.14419 4.032447,0.12627 6.060915,0.12627 0.609352,0 3.914943,0.14397 4.166879,0 0.16343,-0.0934 0.1396,-0.35449 0.252538,-0.50507 0.05051,-0.0673 0.172679,0.0266 0.252538,0 0.366767,-0.12226 0.176186,-0.13214 0.505077,-0.37881 0.359859,-0.26989 1.135111,-0.37684 1.388959,-0.75762 0.02576,-0.0386 0.04108,-0.98276 0,-1.01015 -0.110745,-0.0738 -0.268062,-0.0524 -0.378807,-0.12627 -0.108053,-0.072 -0.321365,-0.63514 -0.505076,-0.75761 -0.208851,-0.13923 -0.607847,-0.35531 -0.757615,-0.50508 -0.02976,-0.0298 0.02976,-0.0965 0,-0.12627 -0.133099,-0.1331 -0.371977,-0.11944 -0.505076,-0.25253 -0.184287,-0.18429 -0.599911,-0.66296 -0.883883,-0.75762 -0.07986,-0.0266 -0.177246,0.0376 -0.252538,0 -0.03765,-0.0188 0,-0.0842 0,-0.12627 -0.04209,-0.0421 -0.0698,-0.10744 -0.12627,-0.12627 -0.07986,-0.0266 -0.172678,0.0266 -0.252538,0 -0.18153,-0.0605 -0.318985,-0.31677 -0.505076,-0.3788 -0.07986,-0.0266 -0.177246,0.0377 -0.252538,0 -0.159719,-0.0799 -0.2094,-0.32234 -0.378807,-0.37881 -0.492696,-0.16423 -1.378362,0 -1.894036,0 -0.113439,0 -1.854458,-0.245 -1.894036,-0.12627 -0.03993,0.11979 0,0.25254 0,0.37881"
       id="path4087"
       inkscape:connector-curvature="0" />
    <path
       style="fill:#d8d8d8;fill-opacity:1;stroke:#000000;stroke-width:1px;stroke-linecap:butt;stroke-linejoin:miter;stroke-opacity:1"
       d="m 83.90022,985.65839 c 0.957513,0.17955 3.258487,-0.26071 4.04061,0 0.166495,0.0555 1.069933,0.31903 1.262691,0.12627 0.591219,-0.59122 0.130959,-0.90264 0.378807,-1.89404 0.07424,-0.29695 0.126269,-0.4355 0.126269,-0.75761 0,-0.28831 -0.09032,-0.73918 0,-1.01015 0.136375,-0.40913 0.05538,-0.71106 0.126269,-1.13642 0.337428,-2.02457 0.12627,-4.24933 0.12627,-6.31346 0,-0.27982 -0.138299,-1.99624 0,-2.27284 0.05324,-0.10648 0.214892,-0.1396 0.252538,-0.25254 0.228048,-0.68414 -0.100817,-1.59159 0.126269,-2.27284 0.166263,-0.49879 0.239719,-1.08515 0.378807,-1.6415 0.06314,-0.25254 -0.126269,0 0,-0.37881 0.01882,-0.0565 0.107446,-0.0698 0.126269,-0.12627 0.04042,-0.12126 -0.06059,-0.38388 0,-0.50507 0.06787,-0.13574 0.196177,-0.23791 0.252538,-0.37881 0.143825,-0.35956 -0.09452,-0.88463 0,-1.26269 0.192201,-0.7688 0.246359,-1.60442 0.378807,-2.39911 0.06192,-0.37154 5.46e-4,-2.0214 0.126269,-2.27285 0.01882,-0.0376 0.107446,0.0376 0.12627,0 0.235481,-0.47096 -0.113316,-1.79367 0.126269,-2.27284 0.213391,-0.42678 0.323956,-3.22814 0.378807,-3.28299 0.05952,-0.0595 0.193014,0.0595 0.252538,0 0.237951,-0.23796 0.55566,-0.63972 0.378807,-0.75762 -0.0056,-0.004 -2.507545,-0.56375 -2.777919,-0.63134 -0.23261,-0.0581 -0.530722,0.0756 -0.757615,0 -0.174053,-0.058 -0.288181,-0.20916 -0.505076,-0.25254 -0.38267,-0.0765 -4.382109,-0.10905 -4.545687,0 -0.07831,0.0522 -0.05972,0.18599 -0.126269,0.25254 -0.05952,0.0595 -0.172678,-0.0266 -0.252538,0 -0.914619,0.30487 0.199077,-0.0364 -0.378807,0.25253 -0.134687,0.0673 -0.370389,-0.0673 -0.505076,0 -0.192617,0.0963 -0.316758,0.28465 -0.505076,0.37881 -0.390834,0.19542 -0.931147,0.17353 -1.262691,0.50508 -0.02976,0.0298 0.02976,0.0965 0,0.12627 -0.08929,0.0893 -0.265869,-0.0565 -0.378807,0 -0.0136,0.007 -0.152369,0.20245 -0.252539,0.25253 -0.07529,0.0376 -0.193014,-0.0595 -0.252538,0 -0.23951,0.23952 0.484932,0.96987 0.631346,1.2627 0.547799,1.09559 0.883883,2.31251 0.883883,3.53553 0,0.16839 -0.08013,0.59735 0,0.75761 0.192533,0.38507 0.100102,-0.23094 0.252538,0.37881 0.08748,0.34992 -0.113704,0.79531 0,1.13642 0.05952,0.17857 0.206886,0.32247 0.252538,0.50508 0.06823,0.27292 0.0049,0.38866 0.12627,0.63134 0.135193,0.27039 0.02399,2.11626 0.126269,2.52539 0.122052,0.48821 0.0049,1.02967 0.126269,1.51522 0.291793,1.16718 0.126269,2.56709 0.126269,3.78808 0,0.83186 0.116428,1.1561 -0.252538,1.89403 -0.139223,0.27845 0,1.85045 0,2.27285 0,0.40865 -8.55e-4,0.63391 -0.126269,1.01015 -0.178785,0.53635 0,3.02228 0,3.78807 0,0.84179 0,1.68359 0,2.52538 0,0.0666 -0.04063,0.61103 0,0.63135 0.07529,0.0376 0.177245,-0.0376 0.252538,0 0.07175,0.0359 -0.06091,0.44416 0,0.50507 0.02976,0.0298 0.107446,-0.0376 0.126269,0 0.03765,0.0753 -0.02662,0.17268 0,0.25254 0.06719,0.20157 0.312619,0.43278 0.378807,0.63135 0.02662,0.0799 -0.05952,0.19301 0,0.25253 0.17354,0.17354 0.420897,0.25254 0.631345,0.37881 z"
       id="path4091"
       inkscape:connector-curvature="0" />
    <path
       style="fill:none;stroke:#000000;stroke-width:1px;stroke-linecap:butt;stroke-linejoin:miter;stroke-opacity:1"
       d="m 80.112149,955.35382 c 0.356877,0.47401 0.621605,0.12302 1.010152,0.25254 0.146794,0.0489 0.358721,0.22326 0.505076,0.25253 0.16509,0.033 0.345358,-0.0532 0.505077,0 0.112938,0.0376 0.146058,0.1993 0.252538,0.25254 0.273746,0.13688 0.714374,-0.0986 1.010152,0 0.977874,0.32596 2.379469,0.12627 3.409265,0.12627 0.123739,0 1.266622,0.12234 1.38896,0 0.06655,-0.0666 0.04796,-0.20033 0.126269,-0.25254 0.180127,-0.12008 0.734565,0.14932 0.883884,0 0.141738,-0.14174 0.256374,-0.50699 0.505076,-0.63134 0.07529,-0.0376 0.177246,0.0376 0.252538,0 0.0993,-0.0497 0.447024,-0.19449 0.505076,-0.25254 0.02976,-0.0298 -0.02976,-0.0965 0,-0.12627 0.105224,-0.10522 0.526121,0.10522 0.631346,0 0.10402,-0.10402 -0.0068,-0.25254 0.252538,-0.25254"
       id="path4093"
       inkscape:connector-curvature="0" />
    <path
       style="fill:#3e3e3e;stroke:#000000;stroke-width:1px;stroke-linecap:butt;stroke-linejoin:miter;stroke-opacity:1;fill-opacity:1"
       d="m 90.892857,79.071428 c -0.07887,0.281096 -1.487344,-0.239597 -1.607143,0 -0.05324,0.10648 0.05324,0.250664 0,0.357143 -0.06081,0.121614 -0.430493,0.251922 -0.535714,0.357143 -0.0362,0.0362 -0.0362,0.85666 0,0.892857 0.300169,0.300169 0.897719,0.538146 1.25,0.714286 0.355224,0.177612 2.179086,0 2.678572,0 2.261904,0 4.523809,0 6.785714,0 0.227121,0 1.284004,0.144563 1.428574,0 0.22164,-0.221643 0.22478,-0.403357 0.35714,-0.535714 0.0594,-0.05938 0.29776,0.05938 0.35714,0 0.0421,-0.04209 -0.0421,-0.136482 0,-0.178572 0.14881,-0.148809 0.38691,-0.208333 0.53572,-0.357143 0.0842,-0.08418 -0.11905,-0.357142 0,-0.357142 0.0595,0 0,0.238095 0,0.178571 0,-0.238095 0.21296,-0.607806 0,-0.714286 -0.25659,-0.128292 -1.42857,-0.09493 -1.42857,-0.357143"
       id="path4107"
       inkscape:connector-curvature="0"
       transform="translate(0,924.36218)" />
    <path
       style="fill:#b70000;stroke:#000000;stroke-width:1px;stroke-linecap:butt;stroke-linejoin:miter;stroke-opacity:1;fill-opacity:1"
       d="m 89.821429,76.571428 c 1.04134,-0.0098 0.105125,0.819412 0.357143,1.071429 0.36947,0.369471 -0.01444,-0.5646 0.357142,0.178571 0.05324,0.10648 -0.08418,0.272964 0,0.357143 0.08929,0.08929 0.267858,0.08929 0.357143,0.178572 0.08418,0.08418 -0.05324,0.250663 0,0.357143 0.371586,0.743171 -0.01233,-0.1909 0.357143,0.178571 0.08179,0.08179 0.03757,0.643783 0.178572,0.714286 0.466662,0.233331 5.880777,0 6.785714,0 0.486005,0 1.776583,0.01826 1.785714,0 0.0532,-0.10648 -0.05324,-0.250664 0,-0.357143 0.0266,-0.05324 0.13648,0.04209 0.17857,0 0.0893,-0.08929 -0.0893,-0.446429 0,-0.535714 0.0421,-0.04209 0.15195,0.05324 0.17857,0 0.14012,-0.280225 0.18415,-1.434144 0.35715,-1.607143 0.0421,-0.04209 0.13648,0.04209 0.17857,0 0.0893,-0.08929 -0.0893,-0.446429 0,-0.535715 0.0893,-0.08929 0.26785,-0.08929 0.35714,-0.178571 0.0842,-0.08418 -0.0842,-0.272963 0,-0.357143 0.15714,-0.157136 0.53571,-0.235483 0.53571,-0.535714"
       id="path4105"
       inkscape:connector-curvature="0"
       transform="translate(0,924.36218)" />
    <path
       style="fill:#db0000;stroke:#000000;stroke-width:1px;stroke-linecap:butt;stroke-linejoin:miter;stroke-opacity:1;fill-opacity:1"
       d="m 100.17857,74.25 c -0.238094,-0.178572 -0.459078,-0.382591 -0.714284,-0.535714 -0.285714,-0.171429 -4.925357,0 -5.714286,0 -0.08634,0 -1.386681,-0.08378 -1.428571,0 -0.05324,0.106479 0.05324,0.250663 0,0.357142 -0.05324,0.10648 -0.250664,-0.05324 -0.357143,0 -0.140431,0.07022 -0.632187,0.275044 -0.714286,0.357143 -0.04209,0.04209 0.04209,0.136482 0,0.178572 -0.06619,0.06619 -0.603963,0.12341 -0.714286,0.178571 -0.743171,0.371586 0.1909,-0.01233 -0.178571,0.357143 -0.08132,0.08132 -1.140641,0.466502 -0.714286,0.892857 1.766686,1.766685 4.742146,1.25 7.142857,1.25 0.27728,0 1.603956,0.181759 1.785715,0 0.09412,-0.09412 0.08446,-0.263027 0.178571,-0.357143 0.07512,-0.07512 0.64888,0.0327 0.714286,0 0.03482,-0.01741 0.139825,-0.318396 0.178571,-0.357143 0.08418,-0.08418 0.250664,0.05324 0.357143,0 0.44077,-0.220384 0.18824,-0.719119 0.53571,-0.892857 0.10648,-0.05324 0.27297,0.08418 0.35715,0 0.0421,-0.04209 -0.0421,-0.136481 0,-0.178571 0.11707,-0.117068 0.44625,-0.267678 0.53571,-0.357143 0.0842,-0.08418 0,-0.47619 0,-0.357143 0,0.119048 0,0.476191 0,0.357143 0,-1.218126 0.11527,-1.438965 -1.25,-0.892857 z"
       id="path4103"
       inkscape:connector-curvature="0"
       transform="translate(0,924.36218)" />
    <g
       id="g4176"
       transform="translate(4.0406102,0)">
      <path
         style="fill:none;stroke:#000000;stroke-width:1px;stroke-linecap:round;stroke-linejoin:miter;stroke-opacity:1"
         d="m 5.3571429,980.21932 c 1.4420672,-1.6533 4.0737532,-5.75847 5.2559281,-1.70209 0.400277,0.77325 0.776822,1.57332 1.351216,2.23781"
         id="path4111"
         inkscape:connector-curvature="0" />
      <g
         id="g4163">
        <path
           style="fill:#e7cf99;fill-opacity:1;stroke:#000000;stroke-width:0.55721939px;stroke-linecap:butt;stroke-linejoin:miter;stroke-opacity:1"
           d="m 12.157081,961.86551 c 0.201784,2.75818 1.947955,5.11738 2.303545,7.86092 1.244607,2.4905 0.858144,5.22378 0.786935,7.8891 -0.02834,8.51139 -3.7e-5,17.02309 -0.01118,25.53467 2.649874,-1.219 2.860248,-4.68607 3.254777,-7.24857 0.360357,-2.54955 1.590714,-4.96193 1.275258,-7.61418 -0.0089,-1.50137 -0.053,-5.90648 0.02016,-2.15662 0.256708,2.27397 -0.14324,7.93982 3.29852,4.68784 0.783626,-0.64886 2.934164,-4.61061 1.929772,-4.00864 -0.837681,2.45251 0.984415,5.3786 2.745024,6.85075 2.798774,-1.75224 3.691086,-5.8346 3.487899,-9.02655 -0.614807,0.95365 -1.114531,4.94175 0.867699,6.47628 3.031912,2.19495 4.196241,-3.46379 3.64355,-5.73657 -1.110332,-3.85939 -1.48029,-7.92247 -2.683181,-11.76831 -1.260086,-2.59373 -1.71044,-5.40938 -2.898346,-8.0566 -0.881448,-3.8272 -2.17907,-7.37204 -2.420052,-11.32015 l -0.203875,-0.6589"
           id="path2985"
           inkscape:connector-curvature="0" />
        <path
           style="fill:none;stroke:#000000;stroke-width:1px;stroke-linecap:round;stroke-linejoin:miter;stroke-opacity:1"
           d="m 9.1071429,977.00504 c 0.41783,3.71167 -0.2510159,7.43381 -1.0391929,11.03903 -0.3014122,1.27394 0.7959146,6.79155 -0.9488087,3.23951 -0.4746853,-1.36421 -1.4981206,-2.44036 -2.1191379,-3.74283"
           id="path4113"
           inkscape:connector-curvature="0" />
      </g>
      <path
         style="fill:none;stroke:#000000;stroke-width:1px;stroke-linecap:round;stroke-linejoin:miter;stroke-opacity:1"
         d="m 8.3928572,992.5854 c 1.2287567,-1.33474 2.2607318,-2.83582 3.2142838,-4.37501"
         id="path4115"
         inkscape:connector-curvature="0" />
    </g>
    <path
       style="fill:#e7cf99;fill-opacity:1;stroke:#000000;stroke-width:0.55721939px;stroke-linecap:butt;stroke-linejoin:miter;stroke-opacity:1"
       d="m 99.98172,957.68776 c -0.538675,2.2767 1.00325,4.44795 0.60365,6.76869 0.59224,2.65431 0.63478,5.36075 -0.24982,7.96025 -1.744376,8.78926 -3.364765,17.60329 -5.06501,26.40149 2.779496,-0.66881 3.630574,-3.95938 4.514608,-6.3405 0.706322,-2.48687 2.538222,-4.57369 2.676922,-7.2567 0.3031,-1.46571 1.09776,-6.01897 0.471,-2.26769 0.0717,2.01814 -1.86467,7.2746 1.85755,5.50666 1.33702,-0.52627 3.76338,-3.62541 3.21345,-3.94155 -1.49538,2.20778 -0.026,5.02227 0.96697,7.04507 2.56523,0.64009 3.80398,-3.48458 5.01957,-5.33629 0.53491,-1.76588 0.52255,-3.58544 -0.26483,-1.22964 -0.757,2.1032 -0.78836,5.44406 1.88947,6.0949 2.14109,-1.21173 3.14179,-3.44934 3.12581,-5.95842 -0.29819,-3.7967 -0.0248,-7.60721 -0.33766,-11.39879 -0.5731,-2.48785 -0.9434,-4.95395 -1.00469,-7.50876 -1.03227,-2.58421 -0.15685,-5.37916 -0.96108,-7.96337 -0.39325,-1.95221 0.81942,-3.7849 0.22231,-5.83902"
       id="path2985-4"
       inkscape:connector-curvature="0" />
    <g
       id="g4227"
       transform="matrix(0.99203033,-0.12599931,0.12599931,0.99203033,-129.6263,17.50746)">
      <path
         inkscape:connector-curvature="0"
         id="path4111-5"
         d="m 116.61812,1001.8809 c 1.1204,-1.2894 2.90758,-1.7684 3.96188,-3.1407 1.40966,0.0121 1.15673,2.7716 2.0555,3.8735 0.13127,0.3412 0.25707,0.6846 0.37235,1.0315"
         style="fill:none;stroke:#000000;stroke-width:1px;stroke-linecap:round;stroke-linejoin:miter;stroke-opacity:1" />
      <g
         transform="translate(26.516504,27.021581)"
         id="g4223">
        <path
           style="fill:none;stroke:#000000;stroke-width:1px;stroke-linecap:round;stroke-linejoin:miter;stroke-opacity:1"
           d="m 94.148954,971.98763 c -0.107622,2.62577 -1.032482,4.87428 -1.783367,7.68967 -1.074379,1.74699 -2.147614,4.99279 -1.768282,7.06175 -0.129982,0.64132 -0.899808,1.13873 -0.943063,-0.72203 -0.238713,-1.14617 -1.180026,-3.36261 -1.513864,-4.44989"
           id="path4113-8"
           inkscape:connector-curvature="0"
           sodipodi:nodetypes="ccccc" />
        <path
           style="fill:none;stroke:#000000;stroke-width:1px;stroke-linecap:round;stroke-linejoin:miter;stroke-opacity:1"
           d="m 90.527868,987.15818 c 1.038516,-0.71395 3.003511,-2.58908 3.977141,-3.69523"
           id="path4115-0"
           inkscape:connector-curvature="0"
           sodipodi:nodetypes="cc" />
      </g>
    </g>
  </g>
</svg>
